<?xml version="1.0" encoding="UTF-8" standalone="no"?>
<!-- Created with sK1/UniConvertor (http://sk1project.org/) -->

<svg
   xmlns:dc="http://purl.org/dc/elements/1.1/"
   xmlns:cc="http://creativecommons.org/ns#"
   xmlns:rdf="http://www.w3.org/1999/02/22-rdf-syntax-ns#"
   xmlns:svg="http://www.w3.org/2000/svg"
   xmlns="http://www.w3.org/2000/svg"
   xmlns:sodipodi="http://sodipodi.sourceforge.net/DTD/sodipodi-0.dtd"
   xmlns:inkscape="http://www.inkscape.org/namespaces/inkscape"
   width="800"
   height="230"
   viewBox="0 0 640.00003 183.99998"
   id="svg2"
   version="1.1"
   inkscape:version="0.48.4 r9939"
   sodipodi:docname="Fiscalia.cdr"
   style="fill-rule:evenodd">
  <title
     id="title3023">Fiscalía General de la Nación (Colombia)  logo</title>
  <metadata
     id="metadata42">
    <rdf:RDF>
      <cc:Work
         rdf:about="">
        <dc:format>image/svg+xml</dc:format>
        <dc:type
           rdf:resource="http://purl.org/dc/dcmitype/StillImage" />
        <dc:title>Fiscalía General de la Nación (Colombia)  logo</dc:title>
      </cc:Work>
    </rdf:RDF>
  </metadata>
  <defs
     id="defs40" />
  <sodipodi:namedview
     pagecolor="#ffffff"
     bordercolor="#666666"
     borderopacity="1"
     objecttolerance="10"
     gridtolerance="10"
     guidetolerance="10"
     inkscape:pageopacity="0"
     inkscape:pageshadow="2"
     inkscape:window-width="1600"
     inkscape:window-height="844"
     id="namedview38"
     showgrid="false"
     inkscape:zoom="1"
     inkscape:cx="380.6453"
     inkscape:cy="119.71512"
     inkscape:window-x="-4"
     inkscape:window-y="-4"
     inkscape:window-maximized="1"
     inkscape:current-layer="svg2" />
  <g
     id="g4"
     transform="translate(8.9642999,-313.39901)">
    <g
       id="g6">
      <g
         id="g8">
        <path
           style="fill:#005287;stroke:none"
           d="m -2.93408,326.393 164.34108,0 0,164.9 -164.34108,0 0,-164.9 z"
           id="path10"
           inkscape:connector-curvature="0" />
        <path
           style="fill:#ffb300;stroke:none"
           d="m 38.49,367.651 82.942,0 0,82.645 -82.942,0 0,-82.645 z"
           id="path12"
           inkscape:connector-curvature="0" />
        <path
           style="fill:#ffb300;stroke:none"
           d="m 80.0412,363.392 c 7.6302,0 13.8235,-5.324 13.8235,-11.883 0,-6.559 -6.1933,-11.883 -13.8235,-11.883 -7.6301,0 -13.8234,5.324 -13.8234,11.883 0,6.559 6.1933,11.883 13.8234,11.883 z"
           id="path14"
           inkscape:connector-curvature="0" />
        <path
           style="fill:#ffb300;stroke:none"
           d="m 71.0157,360.452 c 2.4167,3.278 0.3719,5.796 -2.4841,7.098 l 23.4216,0.101 c -2.67,-0.862 -5.9483,-3.802 -2.5348,-7.351 l -18.4027,0.152 z"
           id="path16"
           inkscape:connector-curvature="0" />
        <path
           style="fill:#ffb300;stroke:none"
           d="m 80.0412,454.842 c 7.6302,0 13.8235,5.324 13.8235,11.883 0,6.559 -6.1933,11.883 -13.8235,11.883 -7.6301,0 -13.8234,-5.324 -13.8234,-11.883 0,-6.559 6.1933,-11.883 13.8234,-11.883 z"
           id="path18"
           inkscape:connector-curvature="0" />
        <path
           style="fill:#ffb300;stroke:none"
           d="m 71.0157,457.782 c 2.4167,-3.278 0.3719,-5.796 -2.4841,-7.097 l 23.4216,-0.102 c -2.67,0.862 -5.9483,3.803 -2.5348,7.351 l -18.4027,-0.152 z"
           id="path20"
           inkscape:connector-curvature="0" />
        <path
           style="fill:#005287;stroke:none"
           d="m 42.4046,409.189 c 0,-7.63 5.3241,-13.824 11.8833,-13.824 6.5592,0 11.8833,6.194 11.8833,13.824 0,7.63 -5.3241,13.823 -11.8833,13.823 -6.5592,0 -11.8833,-6.193 -11.8833,-13.823 z"
           id="path22"
           inkscape:connector-curvature="0" />
        <path
           style="fill:#005287;stroke:none"
           d="m 45.345,418.214 c -3.2785,-2.416 -5.7963,-0.372 -7.0975,2.484 l -0.1014,-23.421 c 0.8619,2.67 3.8022,5.948 7.3509,2.535 l -0.152,18.402 z"
           id="path24"
           inkscape:connector-curvature="0" />
        <path
           style="fill:#005287;stroke:none"
           d="m 117.219,409.189 c 0,-7.63 -5.324,-13.824 -11.883,-13.824 -6.5593,0 -11.8833,6.194 -11.8833,13.824 0,7.63 5.324,13.823 11.8833,13.823 6.559,0 11.883,-6.193 11.883,-13.823 z"
           id="path26"
           inkscape:connector-curvature="0" />
        <path
           style="fill:#005287;stroke:none"
           d="m 114.279,418.214 c 3.278,-2.416 5.796,-0.372 7.097,2.484 l 0.102,-23.421 c -0.862,2.67 -3.802,5.948 -7.351,2.535 l 0.152,18.402 z"
           id="path28"
           inkscape:connector-curvature="0" />
        <path
           style="fill:#e21c2a;stroke:none"
           d="m 179.209,423.871 447.069,0 0,66.267 -447.069,0 0,-66.267 z"
           id="path30"
           inkscape:connector-curvature="0" />
        <path
           style="fill:#e21c2a;stroke:none"
           d="m 196.277,391.811 c 0,1.314 0.149,2.206 0.464,2.673 0.298,0.491 0.977,0.87 2.004,1.182 l 0,1.76 -16.378,0 0,-1.76 c 1.027,-0.357 1.705,-0.78 2.003,-1.271 0.315,-0.512 0.464,-1.359 0.464,-2.584 l 0,-58.939 c 0,-1.315 -0.165,-2.207 -0.48,-2.719 -0.331,-0.49 -0.994,-0.891 -1.987,-1.203 l 0,-1.694 46.816,0 c 1.01,0 1.672,-0.223 2.02,-0.646 0.331,-0.446 0.613,-1.337 0.844,-2.674 l 1.309,0 0,19.074 -1.309,0 c -0.231,-1.314 -0.529,-2.161 -0.927,-2.585 -0.38,-0.423 -1.027,-0.623 -1.937,-0.623 l -32.906,0 0,15.398 20.966,0 c 1.043,0 1.722,-0.201 2.036,-0.58 0.332,-0.401 0.613,-1.27 0.878,-2.629 l 1.259,0 0,17.781 -1.259,0 c -0.198,-1.27 -0.48,-2.116 -0.844,-2.562 -0.381,-0.423 -1.06,-0.646 -2.07,-0.646 l -20.966,0 0,25.247 z m 62.882,0 c 0,1.359 0.149,2.25 0.463,2.718 0.315,0.446 0.944,0.847 1.921,1.204 l 0,1.693 -16.312,0 0,-1.76 c 1.01,-0.312 1.656,-0.713 1.954,-1.203 0.282,-0.513 0.431,-1.382 0.431,-2.652 l 0,-58.939 c 0,-1.359 -0.149,-2.273 -0.464,-2.786 -0.315,-0.49 -0.944,-0.869 -1.921,-1.136 l 0,-1.694 16.312,0 0,1.694 c -0.944,0.267 -1.573,0.646 -1.904,1.136 -0.315,0.513 -0.48,1.427 -0.48,2.786 l 0,58.939 z m 16.545,0.133 5.581,-16.712 1.606,0.914 c -0.033,0.089 -0.066,0.222 -0.099,0.401 -0.067,0.379 -0.116,0.713 -0.149,0.98 0,1.738 2.136,3.632 6.392,5.705 4.239,2.072 8.628,3.097 13.116,3.097 4.04,0 7.352,-0.914 9.952,-2.718 2.584,-1.805 3.876,-4.056 3.876,-6.753 0,-4.434 -4.372,-6.907 -13.1,-7.442 -3.229,-0.156 -5.746,-0.356 -7.568,-0.579 -6.276,-0.736 -10.946,-2.719 -13.993,-5.95 -3.063,-3.209 -4.587,-7.687 -4.587,-13.437 0,-6.93 2.219,-12.523 6.64,-16.779 4.439,-4.256 10.284,-6.395 17.571,-6.395 5.978,0 12.569,2.117 19.74,6.328 1.788,1.048 2.848,1.582 3.213,1.582 0.215,0 0.463,-0.089 0.728,-0.267 0.249,-0.178 0.646,-0.535 1.159,-1.047 l 1.209,0.78 -6.342,16.578 -1.656,-1.181 c 0,-0.134 0,-0.223 0.016,-0.289 0.017,-0.067 0.033,-0.201 0.033,-0.424 0,-2.095 -1.987,-4.301 -5.945,-6.618 -3.958,-2.339 -8.115,-3.498 -12.437,-3.498 -3.825,0 -6.889,0.802 -9.224,2.406 -2.335,1.627 -3.494,3.699 -3.494,6.262 0,3.743 3.743,5.927 11.211,6.529 3.876,0.356 6.956,0.713 9.257,1.114 6.277,1.047 11.08,3.342 14.392,6.93 3.312,3.565 4.968,8.2 4.968,13.905 0,6.707 -2.418,12.256 -7.27,16.645 -4.853,4.39 -11.096,6.596 -18.73,6.596 -7.287,0 -14.242,-2.094 -20.866,-6.284 -1.259,-0.78 -2.02,-1.159 -2.285,-1.159 -0.348,0 -0.613,0.09 -0.796,0.29 -0.181,0.2 -0.347,0.58 -0.513,1.137 l -1.606,-0.647 z m 112.96,-18.74 1.059,-0.913 7.287,15.085 -1.126,0.981 c -0.381,-0.424 -0.679,-0.735 -0.861,-0.869 -0.199,-0.156 -0.398,-0.245 -0.58,-0.245 -0.397,0 -1.441,0.713 -3.163,2.094 -7.949,6.262 -15.649,9.404 -23.085,9.404 -8.661,0 -15.865,-3.477 -21.611,-10.407 -5.747,-6.952 -8.611,-15.642 -8.611,-26.093 0,-10.674 2.914,-19.409 8.76,-26.25 5.829,-6.841 13.43,-10.25 22.771,-10.25 4.785,0 9.604,1.047 14.473,3.164 4.868,2.117 7.452,3.187 7.75,3.187 0.381,-0.045 0.795,-0.112 1.226,-0.178 0.447,-0.067 0.927,-0.134 1.49,-0.224 l 1.06,0.914 -7.319,15.866 -1.226,-0.914 c 0.033,-0.089 0.049,-0.178 0.066,-0.267 0.017,-0.089 0.033,-0.223 0.033,-0.379 0,-1.961 -1.921,-3.989 -5.746,-6.083 -3.826,-2.095 -7.866,-3.142 -12.106,-3.142 -5.812,0 -10.598,2.25 -14.341,6.751 -3.759,4.524 -5.631,10.184 -5.631,17.025 0,7.265 1.872,13.147 5.598,17.626 3.742,4.479 8.628,6.73 14.673,6.73 4.438,0 8.793,-1.293 13.098,-3.878 4.306,-2.607 6.442,-4.702 6.442,-6.306 0,-0.312 -0.032,-0.668 -0.083,-1.092 -0.065,-0.401 -0.165,-0.847 -0.297,-1.337 z m 15.683,24.222 0,-1.76 c 1.806,-0.647 3.28,-2.652 4.422,-5.994 0.083,-0.313 0.183,-0.602 0.281,-0.847 l 19.36,-54.527 c 0.232,-0.602 0.364,-1.025 0.414,-1.27 0.05,-0.245 0.082,-0.468 0.082,-0.691 0,-0.78 -0.248,-1.448 -0.712,-2.006 -0.463,-0.579 -1.159,-1.025 -2.053,-1.381 l 0,-1.694 17.654,0 0,1.694 c -0.978,0.445 -1.624,0.869 -1.971,1.314 -0.331,0.424 -0.497,0.981 -0.497,1.627 0,0.312 0.033,0.647 0.116,1.048 0.082,0.378 0.199,0.846 0.364,1.359 l 19.988,54.594 c 0.878,2.339 1.657,3.988 2.352,4.924 0.696,0.936 1.524,1.538 2.501,1.85 l 0,1.76 -18.78,0 0,-1.76 c 0.911,-0.402 1.54,-0.825 1.921,-1.271 0.364,-0.467 0.563,-1.047 0.563,-1.804 0,-0.29 -0.033,-0.624 -0.099,-0.981 -0.066,-0.334 -0.199,-0.824 -0.398,-1.426 l -3.775,-10.763 -23.93,0 -3.593,10.763 c -0.183,0.602 -0.315,1.092 -0.381,1.426 -0.067,0.357 -0.1,0.691 -0.1,0.981 0,0.757 0.182,1.337 0.563,1.804 0.365,0.446 1.011,0.869 1.921,1.271 l 0,1.76 -16.213,0 z m 30.124,-52.276 -8.877,24.734 17.323,0 -8.446,-24.734 z m 87.242,39.686 c 1.042,0 1.721,-0.2 2.036,-0.579 0.331,-0.401 0.596,-1.248 0.828,-2.563 l 1.309,-0.067 0,19.119 -1.309,0 c -0.198,-1.292 -0.48,-2.183 -0.878,-2.629 -0.38,-0.468 -1.042,-0.691 -1.986,-0.691 l -46.618,0 0,-1.76 c 1.027,-0.357 1.706,-0.78 2.003,-1.271 0.315,-0.512 0.464,-1.359 0.464,-2.584 l 0,-58.939 c 0,-1.315 -0.165,-2.207 -0.48,-2.719 -0.331,-0.49 -0.994,-0.891 -1.987,-1.203 l 0,-1.694 16.378,0 0,1.694 c -0.96,0.312 -1.623,0.713 -1.954,1.203 -0.348,0.512 -0.514,1.404 -0.514,2.719 l 0,51.964 32.708,0 z m 30.753,6.975 c 0,1.359 0.149,2.25 0.464,2.718 0.315,0.446 0.944,0.847 1.921,1.204 l 0,1.693 -16.312,0 0,-1.76 c 1.01,-0.312 1.656,-0.713 1.954,-1.203 0.282,-0.513 0.431,-1.382 0.431,-2.652 l 0,-58.939 c 0,-1.359 -0.149,-2.273 -0.464,-2.786 -0.314,-0.49 -0.944,-0.869 -1.921,-1.136 l 0,-1.694 16.312,0 0,1.694 c -0.944,0.267 -1.573,0.646 -1.904,1.136 -0.315,0.513 -0.481,1.427 -0.481,2.786 l 0,58.939 z m 10.402,5.615 0,-1.76 c 1.805,-0.647 3.279,-2.652 4.422,-5.994 0.082,-0.313 0.182,-0.602 0.281,-0.847 l 19.359,-54.527 c 0.232,-0.602 0.364,-1.025 0.414,-1.27 0.05,-0.245 0.083,-0.468 0.083,-0.691 0,-0.78 -0.248,-1.448 -0.712,-2.006 -0.464,-0.579 -1.159,-1.025 -2.054,-1.381 l 0,-1.694 17.654,0 0,1.694 c -0.977,0.445 -1.623,0.869 -1.971,1.314 -0.331,0.424 -0.497,0.981 -0.497,1.627 0,0.312 0.033,0.647 0.116,1.048 0.083,0.378 0.199,0.846 0.364,1.359 l 19.989,54.594 c 0.877,2.339 1.656,3.988 2.351,4.924 0.696,0.936 1.524,1.538 2.501,1.85 l 0,1.76 -18.779,0 0,-1.76 c 0.91,-0.402 1.539,-0.825 1.921,-1.271 0.364,-0.467 0.563,-1.047 0.563,-1.804 0,-0.29 -0.033,-0.624 -0.1,-0.981 -0.066,-0.334 -0.198,-0.824 -0.397,-1.426 l -3.776,-10.763 -23.93,0 -3.593,10.763 c -0.182,0.602 -0.315,1.092 -0.381,1.426 -0.066,0.357 -0.1,0.691 -0.1,0.981 0,0.757 0.183,1.337 0.564,1.804 0.364,0.446 1.01,0.869 1.92,1.271 l 0,1.76 -16.212,0 z m 30.123,-52.276 -8.876,24.734 17.322,0 -8.446,-24.734 z"
           id="path32"
           inkscape:connector-curvature="0" />
        <path
           style="fill:#ffffff;stroke:none"
           d="m 201.729,461.892 0,-3.457 10.895,-0.02 0,10.947 c -1.671,1.532 -3.396,2.68 -5.175,3.457 -1.779,0.769 -3.605,1.154 -5.474,1.154 -2.528,0 -4.828,-0.618 -6.888,-1.862 -2.066,-1.237 -3.624,-3.038 -4.678,-5.381 -1.054,-2.35 -1.581,-4.975 -1.581,-7.875 0,-2.873 0.527,-5.553 1.575,-8.041 1.042,-2.494 2.552,-4.343 4.516,-5.552 1.965,-1.203 4.229,-1.807 6.792,-1.807 1.857,0 3.54,0.343 5.043,1.037 1.504,0.687 2.684,1.649 3.534,2.886 0.857,1.237 1.503,2.845 1.952,4.831 l -3.072,0.969 c -0.389,-1.505 -0.868,-2.687 -1.438,-3.546 -0.574,-0.859 -1.395,-1.546 -2.461,-2.061 -1.06,-0.516 -2.246,-0.777 -3.54,-0.777 -1.557,0 -2.905,0.275 -4.037,0.818 -1.138,0.543 -2.048,1.258 -2.749,2.144 -0.695,0.887 -1.234,1.856 -1.623,2.921 -0.653,1.821 -0.982,3.8 -0.982,5.937 0,2.632 0.395,4.831 1.186,6.604 0.79,1.773 1.94,3.086 3.45,3.945 1.509,0.859 3.108,1.292 4.803,1.292 1.48,0 2.917,-0.33 4.318,-0.983 1.408,-0.646 2.468,-1.34 3.193,-2.082 l 0,-5.498 -7.559,0 z m 15.986,11.579 0,-29.515 18.597,0 0,3.484 -15.195,0 0,9.037 14.231,0 0,3.464 -14.231,0 0,10.046 15.794,0 0,3.484 -19.196,0 z m 23.861,0 0,-29.515 3.492,0 13.512,23.173 0,-23.173 3.264,0 0,29.515 -3.491,0 -13.512,-23.193 0,23.193 -3.265,0 z m 26.06,0 0,-29.515 18.597,0 0,3.484 -15.195,0 0,9.037 14.231,0 0,3.464 -14.231,0 0,10.046 15.794,0 0,3.484 -19.196,0 z m 23.952,0 0,-29.515 11.404,0 c 2.294,0 4.036,0.268 5.229,0.797 1.191,0.529 2.144,1.464 2.862,2.804 0.713,1.347 1.066,2.831 1.066,4.453 0,2.096 -0.587,3.855 -1.772,5.291 -1.18,1.437 -3.007,2.351 -5.475,2.742 0.905,0.495 1.588,0.983 2.055,1.471 0.994,1.045 1.934,2.357 2.827,3.924 l 4.474,8.033 -4.283,0 -3.402,-6.143 c -0.994,-1.766 -1.814,-3.127 -2.461,-4.062 -0.641,-0.941 -1.216,-1.601 -1.725,-1.972 -0.509,-0.378 -1.024,-0.639 -1.551,-0.79 -0.39,-0.09 -1.019,-0.137 -1.899,-0.137 l -3.947,0 0,13.104 -3.402,0 z m 3.402,-16.486 7.319,0 c 1.551,0 2.773,-0.185 3.648,-0.556 0.88,-0.371 1.545,-0.962 2,-1.773 0.455,-0.811 0.683,-1.691 0.683,-2.646 0,-1.395 -0.437,-2.543 -1.324,-3.443 -0.88,-0.9 -2.276,-1.347 -4.186,-1.347 l -8.14,0 0,9.765 z m 19.669,16.486 9.883,-29.515 3.665,0 10.529,29.515 -3.881,0 -3,-8.94 -10.757,0 -2.821,8.94 -3.618,0 z m 7.421,-12.122 8.727,0 -2.69,-8.171 c -0.814,-2.48 -1.425,-4.521 -1.82,-6.123 -0.33,1.897 -0.791,3.773 -1.39,5.642 l -2.827,8.652 z m 19.232,12.122 0,-29.515 3.408,0 0,26.031 12.667,0 0,3.484 -16.075,0 z m 28.779,0 0,-29.515 8.858,0 c 2.001,0 3.528,0.144 4.582,0.426 1.474,0.385 2.731,1.093 3.773,2.11 1.354,1.319 2.372,2.996 3.043,5.044 0.677,2.048 1.012,4.384 1.012,7.016 0,2.241 -0.227,4.227 -0.689,5.958 -0.455,1.732 -1.036,3.168 -1.754,4.302 -0.713,1.134 -1.492,2.027 -2.342,2.673 -0.845,0.653 -1.869,1.148 -3.067,1.485 -1.204,0.336 -2.581,0.501 -4.132,0.501 l -9.284,0 z m 3.402,-3.484 5.492,0 c 1.695,0 3.031,-0.178 3.995,-0.542 0.965,-0.365 1.731,-0.873 2.306,-1.533 0.809,-0.921 1.437,-2.171 1.887,-3.732 0.449,-1.566 0.677,-3.456 0.677,-5.69 0,-3.085 -0.444,-5.456 -1.324,-7.112 -0.887,-1.663 -1.959,-2.77 -3.222,-3.333 -0.911,-0.405 -2.384,-0.605 -4.403,-0.605 l -5.408,0 0,22.547 z m 22.622,3.484 0,-29.515 18.597,0 0,3.484 -15.195,0 0,9.037 14.231,0 0,3.464 -14.231,0 0,10.046 15.794,0 0,3.484 -19.196,0 z m 33.738,0 0,-29.515 3.408,0 0,26.031 12.668,0 0,3.484 -16.076,0 z m 17.304,0 9.882,-29.515 3.665,0 10.53,29.515 -3.881,0 -3.001,-8.94 -10.757,0 -2.821,8.94 -3.617,0 z m 7.42,-12.122 8.727,0 -2.689,-8.171 c -0.815,-2.48 -1.426,-4.521 -1.821,-6.123 -0.329,1.897 -0.791,3.773 -1.39,5.642 l -2.827,8.652 z m 27.342,12.122 0,-29.515 3.492,0 13.512,23.173 0,-23.173 3.264,0 0,29.515 -3.492,0 -13.512,-23.193 0,23.193 -3.264,0 z m 23.161,0 9.882,-29.515 3.666,0 10.529,29.515 -3.881,0 -3,-8.94 -10.757,0 -2.821,8.94 -3.618,0 z m 7.421,-12.122 8.726,0 -2.689,-8.171 c -0.814,-2.48 -1.425,-4.521 -1.821,-6.123 -0.329,1.897 -0.79,3.773 -1.389,5.642 l -2.827,8.652 z m 37.727,1.773 3.408,0.99 c -0.713,3.202 -2.001,5.649 -3.851,7.339 -1.857,1.684 -4.121,2.522 -6.804,2.522 -2.773,0 -5.025,-0.646 -6.762,-1.938 -1.737,-1.299 -3.061,-3.175 -3.965,-5.628 -0.905,-2.46 -1.36,-5.099 -1.36,-7.917 0,-3.071 0.509,-5.751 1.534,-8.04 1.023,-2.288 2.479,-4.027 4.372,-5.216 1.886,-1.189 3.965,-1.779 6.234,-1.779 2.576,0 4.738,0.748 6.493,2.253 1.755,1.506 2.977,3.615 3.666,6.343 l -3.348,0.908 c -0.6,-2.151 -1.462,-3.712 -2.6,-4.694 -1.132,-0.983 -2.557,-1.471 -4.282,-1.471 -1.977,0 -3.624,0.543 -4.953,1.629 -1.33,1.093 -2.265,2.549 -2.797,4.384 -0.54,1.828 -0.809,3.718 -0.809,5.663 0,2.515 0.317,4.7 0.952,6.576 0.641,1.869 1.629,3.271 2.977,4.199 1.348,0.928 2.803,1.388 4.372,1.388 1.905,0 3.516,-0.632 4.84,-1.889 1.323,-1.265 2.216,-3.141 2.683,-5.622 z m 8.181,10.349 0,-29.515 3.402,0 0,29.515 -3.402,0 z m 8.368,-14.376 c 0,-4.9 1.144,-8.734 3.437,-11.504 2.295,-2.769 5.253,-4.157 8.883,-4.157 2.372,0 4.516,0.653 6.421,1.951 1.904,1.306 3.36,3.12 4.36,5.45 1,2.323 1.497,4.968 1.497,7.916 0,2.997 -0.521,5.677 -1.575,8.034 -1.054,2.364 -2.546,4.151 -4.474,5.367 -1.935,1.216 -4.013,1.821 -6.247,1.821 -2.426,0 -4.588,-0.667 -6.493,-2.013 -1.91,-1.34 -3.354,-3.175 -4.336,-5.498 -0.982,-2.316 -1.473,-4.776 -1.473,-7.367 z m 3.509,0.062 c 0,3.56 0.833,6.357 2.498,8.404 1.671,2.048 3.761,3.072 6.277,3.072 2.564,0 4.672,-1.031 6.324,-3.099 1.654,-2.068 2.486,-5.003 2.486,-8.803 0,-2.398 -0.359,-4.494 -1.066,-6.288 -0.707,-1.794 -1.743,-3.182 -3.102,-4.171 -1.366,-0.983 -2.893,-1.478 -4.588,-1.478 -2.414,0 -4.486,0.948 -6.223,2.852 -1.737,1.897 -2.606,5.072 -2.606,9.511 z m 25.443,14.314 0,-29.515 3.492,0 13.512,23.173 0,-23.173 3.264,0 0,29.515 -3.491,0 -13.512,-23.193 0,23.193 -3.265,0 z"
           id="path34"
           inkscape:connector-curvature="0" />
        <path
           style="fill:none;stroke:none"
           d="m -14.2778,315.815 651.5998,0 0,186.522 -651.5998,0 0,-186.522 z"
           id="path36"
           inkscape:connector-curvature="0" />
      </g>
    </g>
  </g>
</svg>
