<?xml version="1.0" encoding="utf-8"?>
<!-- Generator: Adobe Illustrator 23.0.0, SVG Export Plug-In . SVG Version: 6.00 Build 0)  -->
<svg version="1.1" id="Capa_1" xmlns="http://www.w3.org/2000/svg" xmlns:xlink="http://www.w3.org/1999/xlink" x="0px" y="0px"
	 viewBox="0 0 380.9 114.4" style="enable-background:new 0 0 380.9 114.4;" xml:space="preserve">
<style type="text/css">
	.st0{fill:#E0A370;}
	.st1{fill:#356B53;stroke:#366C54;stroke-miterlimit:10;}
	.st2{fill:#9A276E;}
	.st3{fill:#CED72F;}
	.st4{fill:#3CAA35;}
	.st5{fill:#AFAB15;}
	.st6{fill:#C2401E;}
	.st7{fill:#4191CC;}
	.st8{fill:#D76619;}
	.st9{fill:#FFFFFF;}
	.st10{fill:#FFE105;}
	.st11{fill:#E94087;}
	.st12{fill:#52669A;}
	.st13{fill:none;stroke:#020203;stroke-width:2;stroke-linecap:round;stroke-miterlimit:10;}
	.st14{fill:#E94087;stroke:#020203;stroke-width:2;stroke-linecap:round;stroke-miterlimit:10;}
	.st15{fill:#020203;}
	.st16{fill:#020203;stroke:#5468AF;stroke-width:0.1;stroke-miterlimit:10;}
	.st17{fill:#553016;}
	.st18{fill:#EAAF88;}
</style>
<g>
	<path class="st0" d="M110.9,55.1c0,0,0.8-1.2,5.4-1.3h19.5c5.8,0.8,5.4,1.3,5.4,1.3l-6.6,32.6h-17.9L110.9,55.1z"/>
	<path class="st1" d="M105.2,55.1c8.4,0.8,3.8,13,5.7,18.8H65.4c1.8-5.8-2.6-18,5.6-18.8"/>
	<path class="st2" d="M70.2,92.4h-7.7l-6-15.7H34.9l-5.7,15.7H22l19.8-51.5h7.3L70.2,92.4z M54.5,71.3l-9.1-23.9l-8.6,23.9H54.5z"/>
	<path class="st3" d="M77.1,101.4c3.3,0,6-3,8.1-9L71.1,55.1h7.2l9.9,29.2L98,55.1h7.2L91.1,92.4c-1.4,3.6-2.5,6.3-3.5,8.2
		s-2.2,3.6-3.7,4.9c-1.5,1.3-3.4,2-5.6,2c-1.7,0-3.1-0.2-4.3-0.5v-6.1C75,101.3,76,101.4,77.1,101.4z"/>
	<path class="st4" d="M134.6,87.7c-3.3,3.8-7,5.6-11.1,5.6c-8.4,0-12.6-4.6-12.6-13.8V55.1h6.6v24.1c0,3,0.5,5.2,1.6,6.6
		c1.1,1.3,2.9,2,5.3,2c3.7,0,7.1-2,10.2-6V55.1h6.6v37.3h-6.6V87.7z"/>
	<path class="st5" d="M174.7,88c-3,3.6-6.5,5.3-10.7,5.3c-4.9,0-8.6-1.7-11.3-5.2c-2.7-3.5-4-8.1-4-14c0-6.1,1.5-10.9,4.5-14.5
		s6.7-5.3,11.3-5.3c4,0,7.4,1.2,10.2,3.7V40.9h6.6v51.5h-6.6V88z M174.7,81.7V64c-2.9-3-6.1-4.5-9.8-4.5c-2.8,0-5.1,1.2-6.8,3.7
		c-1.7,2.4-2.5,6.1-2.5,11c0,4.6,0.8,8.1,2.4,10.5c1.6,2.4,3.8,3.6,6.7,3.6C168.3,88.1,171.6,86,174.7,81.7z"/>
	<path class="st6" d="M214.7,88.6c-3.4,3.1-7.7,4.7-13,4.7c-3.7,0-6.8-1-9.1-3s-3.6-4.6-3.6-7.8c0-8.7,7.5-13.1,22.5-13.1h3.2
		c0-2.7-0.1-4.6-0.4-5.8c-0.3-1.2-1.1-2.2-2.4-3c-1.3-0.8-3.3-1.2-6.2-1.2c-5.9,0-9,2.1-9.1,6.3H190c0.5-7.7,5.9-11.5,16.1-11.5
		c4.8,0,8.5,0.9,11.2,2.8s4,5.6,4,11.2v24.1h-6.6V88.6z M214.7,82.6v-8.3h-4.5c-9.6,0-14.4,2.6-14.4,7.8c0,1.9,0.7,3.4,2.1,4.4
		s3.3,1.5,5.7,1.5c2.2,0,4.3-0.5,6.3-1.5S213.5,84.3,214.7,82.6z"/>
	<path class="st7" d="M281.5,92.4h-6.6V68.3c0-3.1-0.4-5.3-1.3-6.6c-0.9-1.3-2.4-2-4.5-2c-3.2,0-6.4,2-9.5,6v26.7H253V68.3
		c0-3.1-0.4-5.3-1.3-6.6c-0.9-1.3-2.4-2-4.5-2c-3.2,0-6.4,2-9.4,6v26.7h-6.6V55.1h6.6v4.7c3.1-3.7,6.6-5.6,10.4-5.6
		c5.5,0,8.9,2.3,10.4,6.8c2.5-2.9,4.6-4.8,6.3-5.6c1.7-0.8,3.4-1.2,5.1-1.2c7.6,0,11.5,4.6,11.5,13.7V92.4z"/>
	<path class="st8" d="M297.7,48.1h-6.6v-7.2h6.6V48.1z M297.7,92.4h-6.6V55.1h6.6V92.4z"/>
	<rect x="309.1" y="70.1" class="st9" width="5" height="24"/>
	<path class="st10" d="M317.1,94.2h-6v-24l0,0c3.3,0,6,2.7,6,6V94.2z"/>
	<path class="st11" d="M367.4,78.3c0.8-0.6,0.9-1.8,0.3-2.6c-1.3-1.7-2.3-2.2-6.6,0.1l-8.7,5.3c-2.7,1.4-9.6,1-12.6,1
		c0,0,7.1,0.5,4.3-3.7c-1.4-2.1-3.8-3.3-6.4-3.3h-3.9h0c-2.3,0-4.5-0.7-6.3-2c-4.2-3.2-12.4,3.1-12.4,3.1v18h14l0,0c2,0,4-0.2,6-0.5
		l13-2c0.4,0,0.9-0.1,1.3-0.1c0,0,0,0,0,0c1.1-0.1,2-0.7,2.8-1.4L367.4,78.3z"/>
	<path class="st11" d="M366.4,75.3c0.8-0.6,0.9-1.8,0.3-2.6c-1.3-1.7-2.3-2.2-6.6,0.1l-8.7,5.3c-2.7,1.4-9.6,1-12.6,1
		c0,0,7.1,0.5,4.3-3.7c-1.4-2.1-3.8-3.3-6.4-3.3h-3.9h0c-2.3,0-4.5-0.7-6.3-2c-4.2-3.2-12.4,3.1-12.4,3.1v18h14l0,0c2,0,4-0.2,6-0.5
		l13-2c0.4,0,0.9-0.1,1.3-0.1c0,0,0,0,0,0c1.1-0.1,2-0.7,2.8-1.4L366.4,75.3z"/>
	<path class="st11" d="M364.1,74.2c0.8-0.6,1.6-2.2,1-3c-1.3-1.7-2.6,0.4-7,2.7l-8.7,5.3c-2.7,1.4-8.2,0-11.2,0c0,0,7.1,0.5,4.3-3.7
		c-1.4-2.1-3.8-3.3-6.4-3.3h-3.9l0,0c-2.3,0-4.5-0.7-6.3-2c-4.2-3.2-12.4,3.1-12.4,3.1l0.6,16h12l0,0c2,0,4-0.2,6-0.5l13-2
		c0.4,0,0.9-0.1,1.3-0.1c0,0,0,0,0,0c1.1-0.1,2-0.7,2.8-1.4L364.1,74.2z"/>
	<path class="st12" d="M342.2,42.8c1.5-3.3,4.7-6.4,8.7-6.4c5.3,0,9.3,4.1,9.8,9.2c0,0,0.3,1.3-0.3,3.6c-0.8,3.1-2.6,5.9-5.1,8
		l-12.7,10.9c-0.1,0.1-0.3,0.1-0.4,0l-12.7-10.9c-2.5-2.1-4.3-4.9-5.1-8c-0.6-2.3-0.3-3.6-0.3-3.6c0.5-5.1,4.1-9.2,9.3-9.2
		C337.5,36.4,340.7,39.5,342.2,42.8z"/>
	<path class="st12" d="M339.1,42.6c1.5-3.3,4.7-6.4,8.7-6.4c5.3,0,9.3,4.1,9.8,9.2c0,0,0.3,1.3-0.3,3.6c-0.8,3.1-2.6,5.9-5.1,8
		l-12.7,10.9c-0.1,0.1-0.3,0.1-0.4,0L326.4,57c-2.5-2.1-4.3-4.9-5.1-8c-0.6-2.3-0.3-3.6-0.3-3.6c0.5-5.1,4.1-9.2,9.3-9.2
		C334.3,36.2,337.6,39.3,339.1,42.6z"/>
	<path class="st9" d="M338.1,67.9c-0.1,0.1-0.2,0.1-0.3,0L326.1,57c-2.3-2.1-3.9-4.9-4.6-8c-0.5-2.3-0.3-3.6-0.3-3.6
		c0.3-5.2,3.7-9.2,8.6-9.2c3.6,0,6.6,3.1,8,6.4L338.1,67.9z"/>
	<path class="st12" d="M339.1,42.6c1.2-3.3,3.8-6.4,7-6.4c4.3,0,7.6,4.1,7.9,9.2c0,0,0.2,1.3-0.3,3.6c-0.6,3.1-2.1,5.9-4.1,8
		l-10.3,10.9c-0.1,0.1-0.2,0.1-0.3,0L328.9,57c-2-2.1-3.5-4.9-4.1-8c-0.5-2.3-0.3-3.6-0.3-3.6c0.4-5.1,3.3-9.2,7.6-9.2
		C335.3,36.2,337.9,39.3,339.1,42.6z"/>
	<line class="st13" x1="338.9" y1="79.2" x2="329.1" y2="79.2"/>
	<path class="st13" d="M362.1,79.5l5.3-4.1c0.8-0.6,0.9-1.8,0.3-2.6c-1.3-1.7-2.3-2.2-6.6,0.1l-8.7,5.3c-2.7,1.4-9.6,1-12.6,1
		c0,0,7.1,0.5,4.3-3.7c-1.4-2.1-3.8-3.3-6.4-3.3h-3.9h0c-2.3,0-4.5-0.7-6.3-2c-4.2-3.2-12.4,3.1-12.4,3.1v18h14l0,0c2,0,4-0.2,6-0.5
		l13-2c0.4,0,0.9-0.1,1.3-0.1c0,0,0,0,0,0c1.1-0.1,2-0.7,2.8-1.4l6.9-5.4"/>
	<rect x="309.1" y="70.2" class="st14" width="5" height="24"/>
	<path class="st13" d="M325.1,82.2c0-2.2,1.8-3,4-3"/>
	<path class="st13" d="M326.2,37.2c1.2-0.6,2.6-1,4.2-1c3.9,0,7.2,3.1,8.7,6.4c1.5-3.3,4.7-6.4,8.7-6.4c5.3,0,9.3,4.1,9.8,9.2
		c0,0,0.3,1.3-0.3,3.6c-0.8,3.1-2.6,5.9-5.1,8l-12.7,10.9c-0.1,0.1-0.3,0.1-0.4,0L326.4,57c-2.5-2.1-4.3-4.9-5.1-8
		c-0.6-2.3-0.3-3.6-0.3-3.6c0.1-1.1,0.4-2.2,0.8-3.2"/>
	<circle class="st15" cx="323.4" cy="39.1" r="1"/>
	<g>
		<path class="st0" d="M122.9,42.1c0,0.6-0.5,1-1,1c-0.6,0-1-0.5-1-1c0-0.6,0.5-1,1-1C122.5,41,122.9,41.5,122.9,42.1z"/>
		<path class="st0" d="M129.7,50c-1,1-2.3,1.5-3.7,1.5c-1.4,0-2.7-0.5-3.7-1.5c-0.4-0.4-0.4-1.1,0-1.5c0.4-0.4,1.1-0.4,1.5,0
			c0.6,0.6,1.4,0.9,2.2,0.9c0.8,0,1.6-0.3,2.2-0.9c0.4-0.4,1.1-0.4,1.5,0C130.1,48.9,130.1,49.6,129.7,50z"/>
		<path class="st0" d="M131.2,42.1c0,0.6-0.5,1-1,1c-0.6,0-1-0.5-1-1c0-0.6,0.5-1,1-1C130.8,41,131.2,41.5,131.2,42.1z"/>
		<path class="st0" d="M137.5,39H137c-1.3-4.5-5.2-7.8-10-8.3v-3.2c0-1.7,1.4-3.1,3.1-3.1c1.7,0,3.1,1.4,3.1,3.1c0,0.6-0.5,1-1,1
			c-0.6,0-1-0.5-1-1c0-0.6-0.5-1-1-1c-0.6,0-1,0.5-1,1c0,1.7,1.4,3.1,3.1,3.1c1.7,0,3.1-1.4,3.1-3.1c0-2.9-2.3-5.2-5.2-5.2
			c-2.9,0-5.2,2.3-5.2,5.2v3.2c-4.8,0.4-8.7,3.8-10,8.3h-0.4c-2.3,0-4.2,1.9-4.2,4.2c0,2.3,1.9,4.1,4.2,4.1v1.1
			c0,5.1,4.2,9.3,9.3,9.3h4.2c5.2,0,9.4-4.2,9.4-9.3v-1.1c2.3,0,4.1-1.9,4.1-4.1C141.6,40.8,139.8,39,137.5,39z M135.4,48.4
			c0,4-3.3,7.3-7.3,7.3H124c-4,0-7.3-3.3-7.3-7.3v-6.3c0-5.2,4.2-9.3,9.4-9.3c5.2,0,9.3,4.2,9.3,9.3V48.4z"/>
		<g>
			<path class="st15" d="M129.7,50c-1,1-2.3,1.5-3.7,1.5c-1.4,0-2.7-0.5-3.7-1.5c-0.4-0.4-0.4-1.1,0-1.5c0.4-0.4,1.1-0.4,1.5,0
				c0.6,0.6,1.4,0.9,2.2,0.9c0.8,0,1.6-0.3,2.2-0.9c0.4-0.4,1.1-0.4,1.5,0C130.1,48.9,130.1,49.6,129.7,50z"/>
			<path class="st15" d="M131.2,42.1c0,0.6-0.5,1-1,1c-0.6,0-1-0.5-1-1c0-0.6,0.5-1,1-1C130.8,41,131.2,41.5,131.2,42.1z"/>
			<path class="st15" d="M122.9,42.1c0,0.6-0.5,1-1,1c-0.6,0-1-0.5-1-1c0-0.6,0.5-1,1-1C122.5,41,122.9,41.5,122.9,42.1z"/>
			<path class="st15" d="M137.5,39H137c-1.3-4.5-5.2-7.8-10-8.3v-3.2c0-1.7,1.4-3.1,3.1-3.1c1.7,0,3.1,1.4,3.1,3.1c0,0.6-0.5,1-1,1
				c-0.6,0-1-0.5-1-1c0-0.6-0.5-1-1-1c-0.6,0-1,0.5-1,1c0,1.7,1.4,3.1,3.1,3.1c1.7,0,3.1-1.4,3.1-3.1c0-2.9-2.3-5.2-5.2-5.2
				c-2.9,0-5.2,2.3-5.2,5.2v3.2c-4.8,0.4-8.7,3.8-10,8.3h-0.4c-2.3,0-4.2,1.9-4.2,4.2c0,2.3,1.9,4.1,4.2,4.1v1.1
				c0,5.1,4.2,9.3,9.3,9.3h4.2c5.2,0,9.4-4.2,9.4-9.3v-1.1c2.3,0,4.1-1.9,4.1-4.1C141.6,40.8,139.8,39,137.5,39z M114.6,42.1v3.1
				c-1.1,0-2.1-0.9-2.1-2.1c0-1.2,0.9-2.1,2.1-2.1h0C114.6,41.4,114.6,41.7,114.6,42.1z M135.4,48.4c0,4-3.3,7.3-7.3,7.3H124
				c-4,0-7.3-3.3-7.3-7.3v-6.3c0-5.2,4.2-9.3,9.4-9.3c5.2,0,9.3,4.2,9.3,9.3V48.4z M137.5,45.2v-3.1c0-0.3,0-0.7-0.1-1h0.1
				c1.1,0,2.1,0.9,2.1,2.1C139.5,44.3,138.6,45.2,137.5,45.2z"/>
			<path class="st0" d="M126,32.7c-5.2,0-9.4,4.2-9.4,9.3v6.3c0,4,3.3,7.3,7.3,7.3h4.2c4,0,7.3-3.3,7.3-7.3v-6.3
				C135.4,36.9,131.2,32.7,126,32.7z M120.9,42.1c0-0.6,0.5-1,1-1c0.6,0,1,0.5,1,1c0,0.6-0.5,1-1,1
				C121.3,43.1,120.9,42.7,120.9,42.1z M129.7,50c-1,1-2.3,1.5-3.7,1.5c-1.4,0-2.7-0.5-3.7-1.5c-0.4-0.4-0.4-1.1,0-1.5
				c0.4-0.4,1.1-0.4,1.5,0c0.6,0.6,1.4,0.9,2.2,0.9c0.8,0,1.6-0.3,2.2-0.9c0.4-0.4,1.1-0.4,1.5,0C130.1,48.9,130.1,49.6,129.7,50z
				 M130.2,43.1c-0.6,0-1-0.5-1-1c0-0.6,0.5-1,1-1c0.6,0,1,0.5,1,1C131.2,42.7,130.8,43.1,130.2,43.1z"/>
		</g>
	</g>
	<g>
		<path class="st15" d="M92.6,43.1c-1.2,1.2-2.8,1.9-4.5,1.9c-1.7,0-3.3-0.7-4.5-1.9c-0.5-0.5-0.5-1.3,0-1.8c0.5-0.5,1.3-0.5,1.8,0
			c0.7,0.7,1.7,1.1,2.7,1.1c1,0,2-0.4,2.7-1.1c0.5-0.5,1.3-0.5,1.8,0C93.1,41.8,93.1,42.6,92.6,43.1z"/>
		<path class="st15" d="M84.3,33.4c0,0.7-0.6,1.3-1.3,1.3c-0.7,0-1.3-0.6-1.3-1.3c0-0.7,0.6-1.3,1.3-1.3
			C83.7,32.1,84.3,32.7,84.3,33.4z"/>
		<path class="st15" d="M94.5,33.4c0,0.7-0.6,1.3-1.3,1.3c-0.7,0-1.3-0.6-1.3-1.3c0-0.7,0.6-1.3,1.3-1.3
			C93.9,32.1,94.5,32.7,94.5,33.4z"/>
		<path class="st16" d="M108.6,37.3c0.8-1.1,1.3-2.5,1.3-3.9c0-2.1-1-4-2.7-5.2c-1.3-9.3-9.4-16.5-19-16.5s-17.7,7.2-19,16.5
			c-1.7,1.2-2.7,3.1-2.7,5.2c0,1.4,0.5,2.8,1.3,3.9c-0.8,1.1-1.3,2.4-1.3,3.8c0,1.4,0.5,2.7,1.3,3.8c-0.8,1.1-1.3,2.4-1.3,3.8
			c0,1.6,0.6,3,1.5,4.2c1.2,1.4,2.9,2.2,4.8,2.2h30.8c3.5,0,6.4-2.9,6.4-6.4c0-1.4-0.5-2.7-1.3-3.8c0.8-1.1,1.3-2.4,1.3-3.8
			C109.9,39.7,109.4,38.4,108.6,37.3z M106,38.2c0.8,0.7,1.3,1.8,1.3,2.9c0,1.1-0.5,2.1-1.3,2.9c-0.6,0.5-0.6,1.4,0,1.9
			c0.8,0.7,1.3,1.8,1.3,2.9c0,2.1-1.7,3.8-3.8,3.8H72.7c-2.1,0-3.8-1.7-3.8-3.8c0-1.1,0.5-2.1,1.3-2.9c0.6-0.5,0.6-1.4,0-1.9
			c-0.8-0.8-1.3-1.8-1.3-2.9c0-1.1,0.5-2.1,1.3-2.9c0.6-0.5,0.6-1.4,0-1.9c-0.8-0.7-1.3-1.8-1.3-3c0-1.4,0.8-2.7,2-3.3
			c0.4-0.2,0.6-0.6,0.6-1c0.9-8.3,8.2-14.9,16.6-14.9c8.4,0,15.7,6.5,16.6,14.9c0.1,0.4,0.3,0.8,0.7,1c1.2,0.7,2,2,2,3.3
			c0,1.1-0.5,2.2-1.3,3C105.4,36.8,105.4,37.7,106,38.2z"/>
		<path class="st17" d="M107.3,41.1c0-1.1-0.5-2.1-1.3-2.9c-0.6-0.5-0.6-1.4,0-1.9c0.8-0.7,1.3-1.8,1.3-3c0-1.4-0.8-2.7-2-3.3
			c-0.4-0.2-0.6-0.6-0.7-1c-0.9-8.3-8.1-14.9-16.6-14.9c-8.4,0-15.7,6.5-16.6,14.9c0,0.4-0.3,0.8-0.6,1c-1.2,0.7-2,2-2,3.3
			c0,1.1,0.5,2.2,1.3,3c0.6,0.5,0.6,1.4,0,1.9c-0.8,0.7-1.3,1.8-1.3,2.9c0,1.1,0.5,2.1,1.3,2.9c0.6,0.5,0.6,1.4,0,1.9
			c-0.8,0.7-1.3,1.8-1.3,2.9c0,2.1,1.7,3.8,3.8,3.8h30.8c2.1,0,3.8-1.7,3.8-3.8c0-1.1-0.5-2.1-1.3-2.9c-0.6-0.5-0.6-1.4,0-1.9
			C106.8,43.2,107.3,42.2,107.3,41.1z M102.1,38.6c0,6.3-5.2,11.5-11.5,11.5h-5.1c-6.3,0-11.5-5.1-11.5-11.5v-5.2
			c0-0.9,0.1-1.9,0.3-2.8c0.1-0.6,0.6-1,1.3-1c5.3,0,9.8-3.6,11.1-8.8l0.1-0.5c0.1-0.6,0.7-1,1.2-1c0.6,0,1.1,0.4,1.2,1l0.1,0.5
			c1.3,5.2,5.9,8.8,11.1,8.8c0.6,0,1.1,0.4,1.2,1c0.2,0.9,0.3,1.9,0.3,2.8V38.6z"/>
		<path class="st15" d="M101.8,30.6c-0.1-0.6-0.6-1-1.2-1c-5.3,0-9.8-3.6-11.1-8.8l-0.1-0.5c-0.1-0.6-0.6-1-1.2-1
			c-0.6,0-1.1,0.4-1.2,1l-0.1,0.5c-1.3,5.2-5.9,8.8-11.1,8.8c-0.6,0-1.1,0.4-1.3,1c-0.2,0.9-0.3,1.9-0.3,2.8v5.2
			c0,6.3,5.1,11.5,11.5,11.5h5.1c6.3,0,11.5-5.1,11.5-11.5v-5.2C102.1,32.4,102,31.5,101.8,30.6z M99.6,38.6c0,4.9-4,8.9-8.9,8.9
			h-5.1c-4.9,0-8.9-4-8.9-8.9v-5.2c0-0.4,0-0.9,0.1-1.3c2.7-0.2,5.4-1.3,7.5-3c1.6-1.3,2.9-2.9,3.9-4.7c0.9,1.8,2.3,3.5,3.9,4.7
			c2.2,1.7,4.8,2.8,7.5,3c0,0.4,0.1,0.9,0.1,1.3V38.6z"/>
		<path class="st18" d="M99.5,32.1c-2.7-0.2-5.4-1.3-7.5-3c-1.6-1.3-2.9-2.9-3.9-4.7c-0.9,1.8-2.2,3.5-3.9,4.7
			c-2.2,1.7-4.8,2.8-7.5,3c-0.1,0.4-0.1,0.9-0.1,1.3v5.2c0,4.9,4,8.9,8.9,8.9h5.1c4.9,0,8.9-4,8.9-8.9v-5.2
			C99.6,32.9,99.6,32.5,99.5,32.1z M81.7,33.4c0-0.7,0.6-1.3,1.3-1.3c0.7,0,1.3,0.6,1.3,1.3c0,0.7-0.6,1.3-1.3,1.3
			C82.3,34.6,81.7,34.1,81.7,33.4z M92.6,43.1c-1.2,1.2-2.8,1.9-4.5,1.9c-1.7,0-3.3-0.7-4.5-1.9c-0.5-0.5-0.5-1.3,0-1.8
			c0.5-0.5,1.3-0.5,1.8,0c0.7,0.7,1.7,1.1,2.7,1.1c1,0,2-0.4,2.7-1.1c0.5-0.5,1.3-0.5,1.8,0C93.1,41.8,93.1,42.6,92.6,43.1z
			 M93.2,34.6c-0.7,0-1.3-0.6-1.3-1.3c0-0.7,0.6-1.3,1.3-1.3c0.7,0,1.3,0.6,1.3,1.3C94.5,34.1,93.9,34.6,93.2,34.6z"/>
	</g>
</g>
</svg>
