<?xml version="1.0" encoding="utf-8"?>
<!-- Generator: Adobe Illustrator 23.0.0, SVG Export Plug-In . SVG Version: 6.00 Build 0)  -->
<svg version="1.1" id="Layer_1" xmlns="http://www.w3.org/2000/svg" xmlns:xlink="http://www.w3.org/1999/xlink" x="0px" y="0px"
	 viewBox="0 0 184.8 158.1" style="enable-background:new 0 0 184.8 158.1;" xml:space="preserve">
<style type="text/css">
	.st0{fill-rule:evenodd;clip-rule:evenodd;}
	.st1{fill-rule:evenodd;clip-rule:evenodd;fill:#008F3C;}
	.st2{fill-rule:evenodd;clip-rule:evenodd;fill:#FFFFFF;}
	.st3{fill-rule:evenodd;clip-rule:evenodd;fill:none;stroke:#000000;stroke-width:0.5;stroke-miterlimit:22.9256;}
	.st4{fill-rule:evenodd;clip-rule:evenodd;fill:#009640;stroke:#000000;stroke-width:0.5;stroke-miterlimit:22.9256;}
	.st5{fill-rule:evenodd;clip-rule:evenodd;fill:#009640;stroke:#000000;stroke-width:1.0001;stroke-miterlimit:22.9256;}
	.st6{fill-rule:evenodd;clip-rule:evenodd;fill:#FFFFFF;stroke:#000000;stroke-width:0.5;stroke-miterlimit:22.9256;}
</style>
<g>
	<g>
		<path class="st0" d="M112.9,14.7c3.2,0.7,5.9,1.7,7.9,3.6c0.5-0.2,0.9-0.4,1.1-0.8c0.7,1,2.9,2.9,4.2,2.2c1.8,1.5,4,2.8,5.5,4.6
			c0.3-0.5,0.7-0.8,1.3-1.1c0.8,1.5,1.8,2.7,3,3.9c0.5-0.4,0.7-0.4,1.2-0.6c1.4,2.6,3.5,4,4.6,6.9c1.7-0.5,2.2,1.9,3,3
			c0.5,0.7,1,1.1,1.9,0.9c1.7,3.6,4.4,7.1,3.6,12.2c0.8-0.4,1.3-1.4,2.5-1.8c0.8,3.1,1.8,5.3,1.8,9.2c0.6,0,1,0.1,1.4,0.4
			c-0.6,3.7,0.8,7.7,0.2,10.7c-0.4,2.3-3,3.3-3.3,4.5c-0.1,0.5,0.2,0.8,0.2,1c0.5,3.2,1.9,0.4,3.9,1c0,0.1,0.1,0.3,0.1,0.6
			c-0.2,1.4-2.2,6.7-2.9,8c0.3,0.2,1.6,0.4,1.4,1.2c-0.1,0.5-0.9,1.1-1.1,1.5c-1.1,2-2.5,4.4-3.2,6.5c1.3,0.1,1.9-0.3,2.4,0.7
			c-1.4,1.8-3.1,4.1-5,5.4c-1.7,1.2-3.8,1.1-4.6,3.3c-0.8,2.1,3.6,1.9,5.1,2c-1.2,2.5-4.4,3.4-7,4.5c0.9,2.8,3.5,4.2,4.2,7.4
			c-3.2-0.1-5.1-2.4-4,1.5c0.3,0.9,0.4,1.7,0.4,2.8c-2.9-0.3-4.8-1.8-6.8-2.5c0.9,3.9,6.9,5.8,4.1,10.1c-1.3,2-2.6,3.5-4.6,4.7
			c-0.3,0.2-0.6,0.2-0.9,0.3c-0.2,0.1-0.6,0.3-0.9,0.4c-0.2,0.1-0.4,0.2-0.8,0.3c-0.2,0.1-0.4,0.2-0.7,0.3
			c-6.9,2.9-8.8,0.4-11.9-3.9c-0.3-0.5-0.9-1.7-1.4-1.9c-1.1-0.3-10.6,3.2-13,3.5c-10.9,1.3-19.4,1-29.4-2.2
			c-1.5-0.5-2.6-0.8-4.1-1.2c-0.9,1.3-4.3,6.4-5.7,6.7c-4.5,1-10.8-2.9-13.1-4.8c-6.3-5.3,1-7.2,2.2-12c-1.9,0.9-3.8,3-6.3,2.6
			c0.2-1.3,0.7-2.7,0.8-3.6c0.3-2.7-2-1.1-3.5-0.8c-0.3-2.7,3.2-4.5,3.6-7.2c-3.2-1-5-2.4-7.3-4.2c0.8-0.2,1.8,0,2.8-0.3
			c1.4-0.4,3.2-0.1,2.4-2c-0.7-1.6-5.6-3.8-7.2-5.6c-0.7-0.8-1.5-1.7-2.1-2.5c-1-1.4,2.1,0.3,1.7-1.7c-0.5-2-2.5-5-3.5-6.7
			c0.4-0.3,0.5-0.6,1.1-0.7c-0.3-2.9-1.9-6.1-2.8-8.9c1.5,0.3,3.2,1.9,3.4-0.7c0.1-2-1.9-2.6-2.4-4.4C36.3,70.6,36,61.1,36.5,60
			c0-0.1,0.6-0.3,0.7-0.4c0.3-0.9,0.1-1.9,0.2-2.8c0.4-2.1,1.2-3.9,1.4-6.4c1.4,0.7,1.9,1.9,3,2.9c-0.2-1.6-1.2-2.8-0.8-5
			c0.6-3.1,2.4-5.2,3.3-8.1c2.5-0.4,2.7-4.5,4.7-4.2c0.8-2.8,3-4.5,4.5-6.7c2.3,1.8,2.7-4.9,5-3.1c1.5-1.2,2.9-3.4,4.7-4.2
			c0.4-0.2,0.8,0,1.2,0.2c1-0.8,2.7-2.9,4.1-2c2.4-1.5,5.1-2.8,7.9-4c0.2,0.4-0.2,3.3-0.2,3.3c1-0.3,1.8-2.1,2.9-2.6
			c3.1-1.5,6.2-1.2,9.9-0.7c0.2,1.3-1.2,2.1-2.3,2.8c0.5,1.1,2.5,1.5,3.5,2c-1.3,0.6-3.7,1.6-4.2,3c0.8,0.4,1.7,0.8,2.3,1.2
			c-0.5,0.4-0.9,0.7-1.3,1.1c1.3,0.2,3.6-0.7,5.3-0.8c4.5-0.3,7.2-0.4,11.6,0.5c-0.3-0.3-1.4-1-2-1.4c-2.1-1.2,0.6-0.9,1.9-2
			c-1.1-0.8-2.2-1.3-3.6-1.8c-2.3-0.8,1.5-1.4,2.4-2c0.9-0.6-1.4-2.2-1.9-3.1c5.8-1.5,8.6-1.9,12.2,2.2c1.1,1.3,2.4,2.3,1,0
			C113.2,17,112.4,15.9,112.9,14.7L112.9,14.7z M123.2,30.4c-0.6,0.1-1.5,0.5-2.3,0.7c0,0-1.3,0-2.2,0c1,0.8,1.4,1.1,3.2,1.1
			c1.3,0,4.7-0.1,3.2-1.4C124.7,30.4,123.8,30.3,123.2,30.4L123.2,30.4z M127.3,37.1c0.4,0.4,0.7,1.1,1.3,1.3
			c1.2,0.5,5.4,0.8,4.8-0.2c-0.2-0.4-0.5-0.4-0.4-1C130.8,37.5,129.4,37.3,127.3,37.1L127.3,37.1z M133.3,43.4
			c0.5,1.2,1.8,2.4,2.4,3.9c2.7,0,4.7,0.2,2.8-3.2C136.5,44.1,135.1,43.7,133.3,43.4L133.3,43.4z M56.1,45.4c-1,0.1-2.6,0.5-3.7,0.7
			c-0.4,1.6-0.4,2.4-1.2,3.4c0.2,0,0.5,0,0.9,0c0.6-0.1,2-0.1,2.5-0.3C54.9,49,57.7,45.3,56.1,45.4L56.1,45.4z M139.3,52.8
			c-0.6,0,0.4,1.4,0.4,1.7c0.2,0.6,0.4,1,0.7,1.5c2.8-0.1,4.5,2.1,6.4,3.3c0.1-2-1.5-1.4-2.1-2.6c-0.3-0.6-0.2-1.6-0.3-2.3
			C142.5,54.3,140.5,52.7,139.3,52.8L139.3,52.8z M51.1,55c-2.9,0.4-3.6,2.6-5.2,4.4c-2,2.3,0.9,0.1,2-0.4c0.7-0.4,2-0.4,2.6-0.9
			c0.3-0.2,0.5-1.2,0.7-1.5C51.4,56.1,52.1,54.9,51.1,55L51.1,55z M142.5,62.6c-0.1,0.7-0.1,3.1,0.4,4.2c0.2,0.5,1.5,0.8,2,1.2
			c0.8,0.7,1.6,1.6,2.2,2.4c2.8-1.1,1.2-2.7,0.1-4.4C146.7,65.2,143.4,63.3,142.5,62.6L142.5,62.6z M48.5,65.3
			c-1.6,1.3-3.5,2.1-4.6,4c-3.3,5.6,3.7,1,4.5-0.4C48.9,67.8,48.7,65.9,48.5,65.3L48.5,65.3z M142.4,82.9c-0.3,0.8-1.3,2.8-1.1,3.7
			c0.4,2.2,3.6,2.1,3.7,0.3C145.1,85.6,143,83.8,142.4,82.9L142.4,82.9z M49.3,84.4c-0.5,1-1.9,2.1-2.1,3.2
			c-0.4,2.2,4.3,3.4,2.9-1.4C49.7,85.2,49.9,84.9,49.3,84.4L49.3,84.4z M63.8,34c0,0,3.7,0.6,4.3,0.5c0.6-0.2,2.8-1.8,2.8-1.8
			s-1.1-0.3-2.1-0.3c-1.1,0-2.4-0.3-2.4-0.3L63.8,34L63.8,34z M62,106.6c-0.4,0.9-1.2,7.1,0,7.5c1.2,0.4,3.1,0.2,4.7,0.4
			c2,0.3,4,1.3,5.7,2c6.8,2.5,14.4,5,23.4,5.1c10.2,0,18.2-4.8,26.7-6.8c1.1-0.3,6.4-0.7,6.8-1.1c1.3-1.1,0.2-5.9-0.1-7
			c-1.9,0.6-3,2.4-4.4,3.5c-2.3,1.8-4.9,3.2-7.5,4.7c-14.2,8.1-32.1,6.3-45.7-0.9C68.3,112.1,65.1,108.1,62,106.6z"/>
		<g>
			<path class="st1" d="M107.4,15.6c-1.7,0-3.2,0.4-4.8,0.9c0.4,0.6,0.6,0.8,1.2,1.2c0.7,0.5,3.7,0.5,3,0.1
				c-3.4-1.6-1.5-1.4,0.9-0.6c0.4,0.1,6.8,3.6,5.2,1.8c-0.4-0.4-0.7-0.8-1.1-1.2C110.6,16.9,109.4,15.6,107.4,15.6z"/>
			<path class="st1" d="M114.1,15.9l0.8,2.2c0.6,1,1.4,1.4,2.4,1.7c3.1,0.9-3.3-3.7-0.8-2.2c0.3,0.2,0.6,0.6,0.9,0.8
				c1,0.7,2,1.6,3,2.4c2.1,1.9,1.8-0.1,0.7-1.4C119.4,17.5,116.7,16.8,114.1,15.9z"/>
			<path class="st1" d="M84.6,16.5c-3.2,0-4.4,1.2-6.2,2.4c-0.6,0.4-1.2,0.9-1.7,1.5c-0.2,0.3-0.1,0.6-0.2,0.8
				c2.5-1.8,5-3.4,8.7-3.5c-0.6,0.5-1.2,0.6-2.2,0.8c0.8,0.1,1.8,0.5,3.2-0.3C88.4,16.8,86.5,16.5,84.6,16.5z"/>
			<path class="st1" d="M75.3,17.5c-1.4,0.2-6.4,3.4-6.9,4.6c-0.6,1.5,3.1-1.8,3.7-2.1c0.3-0.1,0.5-0.1,0.9-0.1
				c-0.3,0.3-0.7,1-1.2,1.4c0,0-0.3,0.3-0.3,0.3c1.9-0.4,2.9-1.1,3.6-2.5C75.3,18.8,76,17.4,75.3,17.5z"/>
			<path class="st1" d="M105.8,19c-1.1,0.1-2.4,0.5-3.2,0.8c-1.9,0.6-0.3,1.1,0.8,1.5c3.5,1.5,5.4,2.1,8.9,0.8
				c-0.5-0.4-1.3-0.4-1.3-0.4c-0.6-0.1-2.1-0.1-3-0.2c-0.9-0.1-2.7-0.5-3.9-0.8c1.3-0.2,5.2,0.5,6.6,0.2c0.1,0,0.1-0.3,0.2-0.3
				C112,19.5,107.5,18.8,105.8,19z"/>
			<path class="st1" d="M122.7,19.4v1.3c0.5,2.2,0.6,4.5,3.4,4.6c-0.4-1.1-1.5-2.3-2.2-3.4c-1.1-1.7,2.4,2,2.8,2.1
				C125.5,21.5,125.1,20.5,122.7,19.4z"/>
			<path class="st1" d="M81.7,20c-0.6,0.1-1.5,0.5-2.1,0.7c-0.7,0.2-1.7,0.3-0.9,0.9c1.8,1.3,3.6-0.8,5.8-0.6c0.6,0.1,0.7,0.4,1,0.7
				c-1.4,0.2-2.3,0.5-3.4,0.7c0.3,0-0.5,0.1-0.3,0.1c-1.4,0.5-3.5,0-4.2,1.2c1,0.1,2,0.6,3.3,0.4c1.3-0.2,8.7-3,5.9-3.5
				C85.2,20.3,83.4,19.8,81.7,20z"/>
			<path class="st1" d="M114.4,20.5c-0.6,0.1-1.2,0.3-1.8,0.4c1.9,1.3,3,3.6,5.4,4.4c1.4,0.5,2.4,0.3,3.9,0.6
				c-0.3-0.3-0.7-1.2-1.3-1.5c-1.7-1-3.7-1.3-5.1-2.5c0.4,0.1,0.9,0.2,1.3,0.3c1.2,0.4,2.5,1,3.6,1.5c0.7,0.4,1.2,0.7,2,1
				C121.2,22.3,118,19.9,114.4,20.5z"/>
			<path class="st1" d="M66.9,21.1c-0.9,0.8-2.4,1.8-3,3c-0.9,2.1,0,2,0.9,0.6c2.4-3.8-0.4,2.2-0.8,2.9C66.6,27,67.5,23.4,66.9,21.1
				z"/>
			<path class="st1" d="M127,21.5c0.4,1.4,0.7,3.3,1.5,4.5c0.6,0.8,2.6,2.2,1.5,0.2c-0.7-1.2-1.5-2.3-2.3-3.5
				c0.5,0.3,4.5,5.5,3.7,2.8C131,23.8,128.5,22.2,127,21.5z"/>
			<path class="st1" d="M76.2,22c-3.2-0.3-7,1.5-8.3,4c1.4-0.7,3.9-2.4,5.6-2.5c1.4-0.1,0,0.8-0.4,1c-1.2,0.5-2.3,1.1-3.4,1.7
				c-0.2,0.1-2.1,1.4-1.2,1.7C71.5,28.6,78,22.1,76.2,22z"/>
			<path class="st1" d="M113.1,22.9c-1.8,1.3-5.6,3.2-8.4,1.4c0.7-0.1,1.2,0,1.8,0c1.4,0,0.4-0.8-0.1-0.9c-1.7-0.4-2.3,0.6-3.6,0.6
				c1.3,1,3.4,1.9,5.3,2C110,26.1,115.1,24.2,113.1,22.9z"/>
			<path class="st1" d="M62.9,23.3c-1.3,0.9-3.5,2.6-4.1,3.9c-1.2,2.5,0.7,1.4,1.3,0.4c0.4-0.6,0.2-1.5,0.9-0.9
				c0.2,0.2,0.2,0.1,0.1,0.4c-0.1,0.3-2,2.6-0.6,2C62.1,28.5,63,24.6,62.9,23.3z"/>
			<path class="st1" d="M76.6,24.3c0,0-0.6,0.5-0.6,0.6c0.6,1.9,5.7,2.1,7.8,1.5c0.5-0.1,1.1-0.5,1.5-0.8c1.5-0.8,0.4-1.8-1.3-1.3
				c-1.2,0.3-1,1.2-1,1.2c-0.5,0.1-0.9,0.2-1.4,0.2C80.7,25.7,77.2,24.1,76.6,24.3z"/>
			<path class="st1" d="M132.7,24.9c0.2,1.9-0.9,6,1.4,7c0.4,0.2,0.8,0.3,1.1,0.3c-0.7-1.5-1.3-3.2-1.5-5c0.9,1.1,1.5,2.8,2.1,4.2
				c0,0,0.6-0.9,0.2-0.6c-0.1-0.8,0.2-1.6,0-2.5C135.8,27.5,133.4,25.4,132.7,24.9z"/>
			<path class="st1" d="M117.5,26.2c-1.7,0.2-3.3,0.7-4.5,1.4c-0.1,0.1-1.1,0.5-0.7,0.7c4,2,6.7,1.6,11.7,1
				c-1.9-1.5-6.8-0.1-8.7-0.9c2.5-0.9,4.5-0.3,7.7-0.7c-0.1-0.3-0.3-0.6-0.3-0.8c0,0-1.4-0.2-2.2-0.3
				C119.4,26.5,118.4,26.1,117.5,26.2z"/>
			<path class="st1" d="M123.8,26.3c0.4,1.8,2,3.9,3.5,5c0.9,0.6,1.4,0,1.9,0.9c0.3-0.1,0.9,0.1,0.8,0.1c3.3,1.4-3.7-4.2-4.2-4.6
				c2.1,0.7,3.5,2.1,5.1,3.3c0.4,0.3,0.6,0.3,1.1,0.3C130.6,27.2,128,27.5,123.8,26.3z"/>
			<path class="st1" d="M57.3,27.3c-0.6,1.3-1.5,2.7-2.8,3.4c0,0.9-0.1,2.4-0.1,2.4c0.2,2.2,1.4-1.9,1.5-2.3
				c0.5-1.6,0.5-0.3,0.4,0.4c-0.2,1.1-0.1,1.3-0.4,2c-0.7,1.4,0.9,1.1,1.3,0.4C58.3,32.2,57.7,28.5,57.3,27.3z"/>
			<path class="st1" d="M72.5,27.7c-0.6,0.1-1.5,0.8-2.2,1c-0.8,0.2-1.6-0.2-2.3,0c0,0-0.5,0.4-0.6,0.4c-0.7,1,1.4,0.6,2.1,0.5
				c0,0,2-0.1,2.8-0.1c0,0-0.2-0.6,1.1,0.7c-1.8-0.3-3.5,0.4-5.6,0.3c-1,0-1,0.3-1.2,0.8c2.2,0.7,5.5,0.2,7.5-0.6
				c1.2-0.5,2.1-1.3,3.4-1.7C76.4,28.4,74.5,27.3,72.5,27.7z"/>
			<path class="st1" d="M66,28.1c-2.5,0.4-6.3,2.1-7,5.1c0.3-0.2,0.5-0.4,0.7-0.4c1.1-0.6,1.9-1,2.9-1.7c0.9-0.6,1.7-1.2,2-0.2
				c-1.4,0.7-7.9,5.1-2.4,2.9c1.3-0.5,2.9-2,3.5-3.2C65.9,29.9,67.3,27.8,66,28.1z"/>
			<path class="st1" d="M137.1,28.9c0.1,2-0.2,3.4,0.7,5.4c0.7,1.8,3.4,4.2,1.5-0.3c-0.3-0.6-0.3-0.8-0.6-1.5
				c-0.3-0.8-0.6-0.8,0-1.1c0.2,0.4,2.8,6.4,2.5,3.7c-0.1-0.4-0.3-1.1-0.4-1.5C140.3,31.5,138.6,30,137.1,28.9z"/>
			<path class="st1" d="M53.2,30.9c-1.3,1.9-3.4,4.4-3.7,6.7c-0.2,1.4,0.6,1.1,1,0.1c0.4-1.1,1-2.6,1.3-3.4c0.8-1.9-0.2,2.8-0.3,3.2
				C53.5,36.1,53.8,33.3,53.2,30.9z"/>
			<path class="st1" d="M125.6,32.6c-1,0-2.6,0.6-2.6,0.6c-2.3,0.4,4.4,3.1,5.6,3.3c1.2,0.2,2.3-0.3,3.5-0.2c0-0.1,0.3-0.6,0-0.8
				c-0.6-0.3-1.3,0-2-0.1c-1.6-0.3-3.3-0.9-4.7-1.7c1.8,0.1,3.6,0.6,5.8,1c0.1,0,0.3-0.1,0.2-0.1c0.1-0.9,0.3-0.9-1.1-1
				C128.9,33.4,127.3,32.5,125.6,32.6z"/>
			<path class="st1" d="M132.7,32.7c0.9,4,1.8,6.4,5.5,7.9c-0.4-0.9-4.2-6.3-3-5.3c0.5,0.4,0.8,1,1.2,1.4c1,1,1.7,2,3.3,2.1
				C138.3,35.8,135.9,33.9,132.7,32.7z"/>
			<path class="st1" d="M57.6,34.5c-2.4,1.8-4.3,3.2-6.1,5.3c-0.5,0.6-0.7,0.8-1,1.7c0,0,0.5-0.2,0.4-0.2c2-1.4,3.7-2.5,5.1-4.5
				c0.8,0.5,0.5,0.7,0,1.3c-0.8,1.1-1.7,2.4-2.6,3.5c-0.3,0.4-0.2,0.3-0.4,0.9c2.8-1.3,3.6-3.3,4.5-6.5
				C57.6,35.6,58.3,34.9,57.6,34.5z"/>
			<path class="st1" d="M66.2,34.5c-2.2,0.1-4.1,0.5-6.1,1.1c-4.2,1.3,3.8,0,4.8,0c-1.2,0.8-8.8,2.3-5.4,2.6c2.4,0.3,4.3-0.8,5.8-2
				C65.9,36,68.4,34.5,66.2,34.5z"/>
			<path class="st1" d="M142.8,35.5c-0.5,2.9-1.2,4.5,1.2,6.2c-0.2-0.8-0.5-1.5-0.7-2.1c-0.9-3.3,0.4-2.3,1,0.2
				c0.9-0.4,1-1.1,0.3-1.9C144,37.1,143.6,36.2,142.8,35.5z"/>
			<path class="st1" d="M48,37.5c-0.9,1.5-2.5,2.9-2,4.5c0.8,2.4,0.5-0.3,1.1-0.7c-0.1-0.7,0.1-0.7,0.4-0.9c0.7,1.3-0.6,2.6,0.2,3.3
				C49,41.7,49,39.5,48,37.5z"/>
			<path class="st1" d="M58,39.2c-1,2.6,5,1.2,3.5,0.1c0,0-0.9,0.4-1.2,0.4C59.8,39.8,58.4,39.3,58,39.2z"/>
			<path class="st1" d="M129.8,39.5c1.9,2.4,4.6,3.9,8.6,3.2c-0.6-0.5-1.4-1-2.4-1.1c-0.2,0-0.6,0.1-0.6,0.1c-0.2,0-0.8,0-0.8,0
				c-1.2-0.3-4.2-0.9-1.1-0.8c0.2,0,3.2,0.2,2.5-0.3C134.5,39.4,131.9,39.8,129.8,39.5z"/>
			<path class="st1" d="M146.4,39.7c-1.4,1.9-1.2,3.8-0.1,5.8c-0.8,0.5,0.5,3.1,0.7,3.2c-0.2-2.2,0.2-4.6-0.4-6.4
				c0.6,0,0.7-0.2,0.9,0.7c0.3,1.1,0.2,2.4,0.4,3.5c0.2,1.2-0.4,2.6,0.2,3.6c0.5,0.9,1.1-0.6,0.3-1.3c1.2-0.3,0.8-3.1,0.6-4.2
				C148.6,42.8,147.2,41.2,146.4,39.7z"/>
			<path class="st1" d="M139.4,40.3c-0.3,0,0.1,1.8,0.1,1.8c0,4,2.1,6.4,5,7.2c-1-2.2-2.2-4.1-3.5-5.8c-1.2-1.6,1,0,1.5,0.4
				c0.4,0.4,3.3,5.8,2.5,2.9c-0.2-0.6-0.2-1.2-0.4-1.9C144,43.4,141.3,39.9,139.4,40.3z"/>
			<path class="st1" d="M57.7,41.4c-1,0.1-2.2,1.3-2.2,1.3s2,0.1,2.5,0.3c-1.4,0.6-5.1,0.6-5.4,2c1.6-0.2,2.8,0,4.2-0.7
				C58.3,43.7,62,40.9,57.7,41.4z"/>
			<path class="st1" d="M44.6,41.8c-1.2,3.7-3.3,5.4-2.1,9.7c1,3.3,0.9-4.6,1.2-5.6c1.3-4.6,0.2,3.2,0.8,4.7
				C45.9,48,46.2,44,44.6,41.8z"/>
			<path class="st1" d="M51.5,42c-2,1.9-3.6,2.8-4.5,5.3c-0.2,0.5-0.6,0.9-0.8,1.4l0.1,0.6c1.2-1,1.5-2.6,2.6-3.6
				c1.1-1,1.6-0.5,0.7,0.7c-0.4,0.5-0.8,1.1-1.1,1.8c-0.5,0.9-1.1,1.7-0.3,2.3C49.2,49.6,53.4,43,51.5,42z"/>
			<path class="st1" d="M136.9,48.2c0.6,1.8,1.3,2.8,3.1,3.9c0.7,0.4,1.2,0.7,2.2,0.9c0.6,0.1,1.8,0.3,1.8,0.3
				c0.1-1.8-3-2.9-4.8-3.4c0.6-0.1,1.2,0,2.1,0.2c0.7,0.2,3.9,2.1,2.9,0.3C143,48.7,139.6,48.2,136.9,48.2z"/>
			<path class="st1" d="M145.6,49.6c0.1,1.6-0.4,4.1,0.3,5.7c0.3,0.7,0.5,1.2,0.9,1.7c0.3,0.3,0.1,0.2,0.6,0.4
				c0.7-2.1-0.2-3.9-1.3-5.7c0.4,0.1,0.7,0,1,0.4c0.2,0.4,0.2,0.9,0.4,1.3c0.6,0.8,0.9,1.6,1.2,2.8c0.3,0.9,0.4,1.1,1.1,1.3
				C149.4,54.2,148.1,50.9,145.6,49.6z"/>
			<path class="st1" d="M151.7,49.6c-0.6,1.3-1.7,3.4-1.4,5c0.1,1,0.7,2,0.4,3.5l-0.1,0.9c0.6-0.2,0.8-0.7,0.9-1.5
				c0.3-2.1,0-3.5-0.2-5.5c2.2,2.1,0.8,6.5,0.5,9c0.7-0.6,1.1-1.3,1.4-2.3C153.9,56.8,153,50.8,151.7,49.6z"/>
			<path class="st1" d="M53.4,50.1c-1,0-2.8,0.6-4,1.2c-0.5,0.2-0.7,0.4-1.1,0.7c-0.7,0.6-0.4,0.6-0.2,1.3c1-0.9,1.9-1.5,2.6-0.9
				c-1.2,0.8-2.8,1.5-3.3,3c0.9-0.1,1.2-0.2,1.9-0.4c2.2-0.9,3.5-2.3,4.4-4.3C53.7,50.5,54.1,50.1,53.4,50.1z"/>
			<path class="st1" d="M46.2,50.6c-0.7,1.8-2.6,3.1-3.2,5.2c-0.8,2.9,0,4.2,0.9,0.7c0.2-0.7,0.2-0.9,0.4-1.5
				c0.9-2.1,0.2,3.4,0.4,4.1C45.5,57.3,48.3,52.5,46.2,50.6z"/>
			<path class="st1" d="M39.7,51.8c-1.2,4.1-2.2,6.8-0.3,10.8c0.4-0.8,0.3-1.3,0.4-2.4c0,0-0.1-0.3-0.1-0.1c0-2,0.2-3,0.3-4.1
				c0.9,1.3,0.4,3.7,0.7,5.7c0,0,0.4-0.6,0.4-0.8C42.6,58.6,41.6,53.3,39.7,51.8z"/>
			<path class="st1" d="M141,57.1c0,0-0.2,0.5-0.1,0.3c0.6,1.6,3.5,7.2,5.4,6.7c0.3-0.1,0-1.4-0.1-1.5c-0.7-1.8-3.6-2.5-3.9-3.5
				c1.2,0.3,4.7,2.9,3.7,1.3C145,58.7,143.4,57.6,141,57.1z"/>
			<path class="st1" d="M148.4,58.4c-0.8,3.6-1.1,5.6,0.8,8.5c0.2-2,0.2-4.2-0.4-6.6c1.9,1.4,1.1,4.5,1.8,7c0.6-0.6,0.6-1.2,0.8-1.9
				C151.8,62.7,150.2,59.8,148.4,58.4z"/>
			<path class="st1" d="M49.6,59.3c-0.6,0.4-1.4,1-2.1,1.3c-0.8,0.4-0.8,0.3-1.3,0.8c-0.5,0.5-0.6,0.7-0.9,1.5
				C46.6,62.6,51.6,60.5,49.6,59.3z"/>
			<path class="st1" d="M154.5,59.3c-0.2,0.5-2,4-2,4s0.2,1.7-0.1,3.2c-0.1,0.5-1.3,3.2-0.2,1.9c1.4-1.7,0.9-4,1.4-6.6
				c1,0.8,0.9,3.8,0.6,5.1c-0.4,1.3-2.1,2.9-1.7,4.4C155.8,69.1,155.4,63.4,154.5,59.3z"/>
			<path class="st1" d="M43.1,60.3c-0.5,1.4-1.9,2.3-2.3,3.6c-0.1,0.2-0.1,1.7-0.2,1.8c-0.2,0.1,0.1,0.6,0.1,0.6
				c0,0,0.3,2.7,0.3,2.9c0.2-0.7,0.9-5.5,1.2-5.8c0.5,0.5,0.6,1.2,0.6,1.2c-0.1,1.4-0.4,2.2-0.7,3.6c-0.1,0.7,0.1,0.7,0.7,1
				C43.9,66.7,45.8,62,43.1,60.3z"/>
			<path class="st1" d="M37.4,61.5c-0.3,3-0.9,8.1,0.3,10.6c0.2,0.4,0.8,1.1,1.2,1.4c0.9-2.1,0.4-1.8-0.2-4.1
				c-0.2-0.8-0.4-2.3-0.6-3.5l0.3,0.1c0.4,1.6,0.7,3.3,1.4,4.7c0.7-0.3,0.6-0.3,0.2-1.2C39,66.5,39.8,63.4,37.4,61.5z"/>
			<path class="st1" d="M49,61.8c-1.3,0.3-2.8,1.3-3.4,2.4C43.2,68.5,50.1,63.9,49,61.8z"/>
			<path class="st1" d="M143.2,68.4c-0.2,2.8,1.4,5.1,2.8,6.9c0.5,0.7,0.2,0.3,0.8,0.2c-0.7-2-2-3.1-2.9-4.8c1.1,0.7,2.2,1.7,2.8,3
				c0,0,0.7-0.4,0.3-0.3C147.9,71.6,144.7,69.2,143.2,68.4z"/>
			<path class="st1" d="M150,68.6c-0.3,3.3-2.4,5.6-2.1,8.6c0.1,1.2,0.6,1.6,0.9,0.2c0.5-2,0.8-4.7,1.7-6.7c0.2,0.7,0.4,1.7,0.8,2.2
				c-0.4,0.4-1.7,5.3-0.2,4.4C153.6,75.5,151,70.1,150,68.6z"/>
			<path class="st1" d="M47.7,70.3c-0.7,1.4-2.2,2-2.9,3.3c-0.4,0.8,0,0.9,0.2,1.4c1-1,1.4-2.3,3.1-2.8C48,71.1,48.4,70.8,47.7,70.3
				z"/>
			<path class="st1" d="M41.7,71c-1.3,2.3-3.1,6.5,0,8.7c-0.1-1.3,0-2.6-0.3-4.3c0.8-0.3,0.8,0.5,1.1,1.8c-0.1-0.1,0.1,0.3,0.2,0.4
				c-0.3,1,0.2,2,1.2,2.5c0.1-0.1,0.1-0.6,0-0.7C44.4,76,43.3,73.7,41.7,71z"/>
			<path class="st1" d="M47.6,73c-0.4,0.7-0.9,1.1-1.3,1.8c-0.2,0.3-0.8,0.9-0.9,1.1C44.1,78.8,49.6,74.3,47.6,73z"/>
			<path class="st1" d="M143.5,74.1c0,1.6,2.5,3.8,3.3,5.5c0.7-0.2,0.1-0.2,0.4-0.4C146.3,76.7,144.9,75.8,143.5,74.1z"/>
			<path class="st1" d="M154.9,75.9c-0.9,1.2-3.1,1.6-3.9,2.9c-0.3,0.5-0.4,3.8,0.8,1.5c0.4-0.8,0.9-1.8,1.4-2.5
				c0.5-0.7,1-0.6,1-0.6s-0.2,0.6-0.3,0.9c-0.7,1.7-1.5,3-2.1,4.8c-0.1,0.2-0.1,1-0.2,1c-0.1,0,0.4,0.1,0.4,0.1c0-0.3-0.1-0.6,0-0.7
				c0.4-0.3,0.8,0,1.1-0.3c0.4-0.6,0.4-1.4,0.7-2.2C154.1,80,155.5,76.3,154.9,75.9z"/>
			<path class="st1" d="M47.8,76.4c0,0-0.1,0.3-0.1,0.4C47.8,76.8,48.5,76.1,47.8,76.4z"/>
			<path class="st1" d="M143.2,76.6c0,0.1-0.4,4.4-0.4,4.4c0.6,1.3,1.3,3.2,2.2,2.9c-0.1-0.8-0.4-1.5-0.7-2.1
				c-0.4-1.1-0.8-1.5-1-2.8c1.1,0.7,2.4,4.1,2.8,2.4C146.4,79.8,144.5,77.2,143.2,76.6z"/>
			<path class="st1" d="M47.3,77c0,0-0.2,0.3-0.2,0.3C47.1,77.4,48,76.7,47.3,77z"/>
			<path class="st1" d="M46.7,77.6c-1.2,0.2-2.4,3.2-1.4,3.7C45.5,80.7,47.2,77.5,46.7,77.6z"/>
			<path class="st1" d="M37.3,77.8c0.1,1.8,1.4,6.4,2.6,7.4c0.5,0.4,0.8,0.2,0.7-0.8c-0.2-1-1-2.3-1.4-3.1c0,0,0-0.5,0-0.6
				c0.6,0.7,1.9,2.9,2.1,1.4c0.2-1.2-0.1-1.6-0.8-2.2C39.5,79.1,38.6,78.4,37.3,77.8z"/>
			<path class="st1" d="M48.2,78.4c-0.6,1.2-1.4,2.5-2.1,3.7c0,0,0.1,0.5,0.1,0.6c0,0,0.2,0.5,0.3,0.8c0.3-0.5,0.3-0.8,0.4-1.2
				c0.3-0.7,0.7-0.4,0.7-0.4c0.6,0.5-0.8,2.7-0.3,3.6C48.6,83.3,49.5,81.1,48.2,78.4z"/>
			<path class="st1" d="M149.2,79c-1.3,2-3.6,4.4-3,7.2c0.8,0.2,0.2,0.1,0.8-0.3c0,0,0.5-2.3,0.6-2.5c0,0,0.2-0.2,0.2-0.2
				c3.1-5.7,0.4,2.2,0.1,3.6c0.3-0.5,1-0.6,1.4-1C151.1,84.1,149.9,80.7,149.2,79z"/>
			<path class="st1" d="M42.5,80.9c0,0-0.1,1.1-0.1,1c-0.7,3-0.3,4.5,1.5,6.1c0.2,0.2,0.4,0.4,0.6,0.7c0.6-0.2-0.7-3.4-1.1-4.3
				c1,0.8,1.4,1.8,2,3.1c0.8,0,0.9-0.4,0.9-0.4C45.9,84.1,44.7,81.9,42.5,80.9z"/>
			<path class="st1" d="M153,85.1c-1.7,0.1-6.9,4.7-5.5,5.4c0.6-1,1.5-2.3,2.4-3.1c0.2-0.2,0.9-0.9,1.1-1c0.3-0.1,0.6-0.1,1-0.1
				c-1.3,2.8-3.8,4.4-5.1,7.4c3.4-1.7,5-4.4,6.3-8.3C153.4,85.5,153.6,85,153,85.1z"/>
			<path class="st1" d="M38.6,86.3c1,2.6,2.2,5.4,4.1,7.4c0.4,0.5,1.5,0.9,1.9,1.1c1.6,0.6-0.8-2.7-1.2-3.3c-0.5-0.7-1-1.4-1.5-2.1
				c0.6,0.2,4,3.7,3.2,1.3C44.1,88,41.1,87.1,38.6,86.3z"/>
			<path class="st1" d="M140.8,88.1c-0.3,1-0.7,1.8-1,2.8c0.5,0.2,0.7,0.4,0.9,1C142.1,90.8,141.5,89.5,140.8,88.1z"/>
			<path class="st1" d="M145.4,88.4c-1,1.3-0.6,3.3-1.2,5.6C145.9,93.6,146.1,90.2,145.4,88.4z"/>
			<path class="st1" d="M50.9,89.2c-0.8,1.7-0.6,2.8,0.1,4.6c0.3-1,1.2-0.9,1.1,0.3c-0.1,0.8-1.1,3.1,0,4.1c0.9,0.8,0.6-1.8,0.8-2.8
				C53.3,93.2,51.9,91,50.9,89.2z"/>
			<path class="st1" d="M46.5,89.5c-0.1,1.4-0.4,3-0.1,4.4c0.2,1,0.6,1.2,1.3,1.3c-0.3-1.4-0.9-3.4,0.3-1.4c0.8,1.3,0.8,2.1,2.4,2.6
				C49.5,93.2,48.8,91.3,46.5,89.5z"/>
			<path class="st1" d="M144.1,89.6c-0.6,0.2-3.7,6.4-1.5,5.4c0.5-0.2,1.6-4.3,1.7-4.8C144.3,90.2,144.6,89.4,144.1,89.6z"/>
			<path class="st1" d="M139.6,91.4c-1,2.4-0.1,3.7-0.2,5.9C141,96.1,140.3,93.3,139.6,91.4z"/>
			<path class="st1" d="M151.3,93.3c-0.4,0-0.6,0.5-0.8,0.6c0,0,0.1,0.2-0.1,0.6c-1.2,1.7-3.4,2.4-4.5,4.2
				C147.4,98.5,152.6,93.3,151.3,93.3z"/>
			<path class="st1" d="M149.4,93.8c-0.3,0.1-0.8,0.5-1.1,0.7C145.5,96.1,151.6,93.2,149.4,93.8z"/>
			<path class="st1" d="M40.5,94.3c0,0-0.1,0.5,0,0.7c1,1.8,3.3,4.3,5.8,4.5c-0.4-1.2-1.6-1.8-2.8-2.6c0.4-0.1,0.9,0,1.9,0.4
				C44.4,95.2,42.8,94.9,40.5,94.3z"/>
			<path class="st1" d="M137.7,95c-0.5,1.3-0.5,2.5-0.4,3.7c0,0,0.2,0.7,0,0.7c0,0,0.2,0.6,0.3,0.9C138,98.8,138.4,96.2,137.7,95z"
				/>
			<path class="st1" d="M145.6,95.1c-1.8,0-3.7,2-4.5,3.1c-0.6,0.7-1.3,1.4-1.9,2.1c-0.3,0.3-2,2.3-0.9,1.5c1.6-1,2.4-3,3.9-4.1
				c1-0.7,2.5-0.8,1.2,0.4c-0.5,0.5-1,0.9-1.4,1.5c-1.5,2.2-4.2,4.7-7.2,4.7l0.1,0.4c6.9-0.8,7.5-3,10.3-8.3
				C145.2,96.6,146.2,95.1,145.6,95.1z"/>
			<path class="st1" d="M46.3,96.2c2.3,4.6,3.7,10.4,11,9.4c-1.3-0.6-2.6-1.2-3.7-2c-0.8-0.6-2.4-2.4-0.9-1.1c1,0.8,1.7,1.6,3.2,2
				c0.8,0.2,1.3,0.3,2.1,0.2C52.9,102.1,52,97.2,46.3,96.2z"/>
			<path class="st1" d="M136,98.1c-0.5,0.8-0.8,1.4-1.1,2.4c-0.5,2,0.7-1,1.3-1C136.2,98.9,136,98.3,136,98.1z"/>
			<path class="st1" d="M55.2,98.2c0,1.6-0.4,2.1,0,3.5c0.4,1.6,1,0.5,1,0.6c-0.2-0.7-0.4-1.5-0.4-2.3c0.9,1.1,0.6,2.8,1.7,2.5
				C57,100.8,56.4,99.3,55.2,98.2z"/>
			<path class="st1" d="M142.5,104c-0.4,0.1-0.8,0.7-1.1,0.9c-0.4,0.2-1,0.3-1.3,0.4c1.4,0.4,3.5-0.2,5,0.1
				c-0.9,0.6-2.2,0.7-3.3,0.9c-0.5,0.1-0.9,0.2-1.8,0.1c1.8,1.4,4.8-0.3,6.5-1.4c1-0.7-0.7-0.5-1.3-0.7
				C144.3,104.1,143,103.9,142.5,104z"/>
			<path class="st1" d="M48.3,104.8c-7.4,0.9,2.5,3.6,3.7,3.2c0.5-0.1,0.6-1.1,0.6-1.1c-1.7,0.2-3,0.1-3.9-0.8c1.2,0.2,1.7,0,3,0
				c0,0,0.4-0.3,0.6-0.3C51.1,105.2,49.7,104.6,48.3,104.8z"/>
			<path class="st1" d="M133.9,105.9c2,2,4.9,3.2,6.8,5.3c1.2,1.2-0.4,0.3-1.1-0.1c-1-0.6-1.9-1.5-3-2c-1.3-0.6-2.3-1.5-3.6-2.2
				c0.1,0.2-0.1,0.6,0.2,0.6c0.7,1,1.7,2.3,2.6,3.1c2.1,1.7,5.5,3,8.3,3.5c-0.2-0.9-0.6-1.3-1-2
				C140.7,108.1,138.8,107.3,133.9,105.9z"/>
			<path class="st1" d="M57.2,106.6c-3.7,0-7.9,5.1-8.7,8.1c4.2-2,6.3-2.8,9.2-5.9c0.5-0.6,0.8-0.6,1-1.3c-2,0.9-5.7,4.9-7.5,4.5
				c2.2-1.6,4.1-3.9,6.4-5.1C57.4,106.9,57.6,106.6,57.2,106.6z"/>
			<path class="st1" d="M130.6,107.5c0.3,1.7,0,6.1,1,6.1C132.8,113.5,131.1,108.2,130.6,107.5z"/>
			<path class="st1" d="M132.1,108.3c0.4,2.4,0.9,4.8,1.7,6.5c1.3,2.7,0.5-1.7,0.2-3C133.7,110.7,132.7,109.2,132.1,108.3z"/>
			<path class="st1" d="M59.2,109.2c-1.3,0.6-1.9,5.7-1.5,6.6c1-1.6,1.3-4.9,1.9-6.4C59.4,109.4,59.5,109,59.2,109.2z"/>
			<path class="st1" d="M60.3,109.5c-0.2,1-1.5,4.7-0.2,4.3C61,113.5,60.6,110.3,60.3,109.5z"/>
			<path class="st1" d="M136.3,112.2c0.4,0.8,4,6.1,2.5,4.3c-0.9-1.1-2.2-1.6-2.9-3.1c-0.5,0.3-0.3,0.6-0.3,0.6
				c0.2,0.7,0,1.2,0.3,1.8c0.3,0.5,1,1,1.4,1.3c0.7,0.5,1.8,0.9,2.6,1.2c2.3,1,0.6-2.2,0.3-4.1C138.8,113.7,137.8,112.9,136.3,112.2
				z"/>
			<path class="st1" d="M55,112.8c-0.2,0.2-0.3,0.4-0.4,0.6c-1.2,1.1-2.9,0.8-2.8,3c0,0.2,0,0.8-0.1,0.8c-0.1,0.8-0.1,1.1-0.3,2
				c2-0.4,4.3-2.8,5-5c-0.2,0.1-0.4,0.2-0.6,0.3c-1,0.8-1.3,2.5-2.6,2.3C53.1,116.8,55.9,113.2,55,112.8z"/>
		</g>
		<path class="st0" d="M144,67.8c-0.1-0.8,0.4-1.5,1.2-1.6c0.8-0.1,1.5,0.4,1.6,1.2c0.1,0.6-0.2,1.2-0.7,1.4l0.3,2.1
			c0,0.1-0.1,0.3-0.2,0.3l-0.5,0.1c-0.1,0-0.3-0.1-0.3-0.2l-0.3-2.1C144.6,68.8,144.1,68.4,144,67.8z"/>
		<path class="st2" d="M94.6,26.5C59.1,29.2,36,66.4,57.3,98.9c4.5,6.9,10.7,12.6,18.7,16c7.1,3,17.1,5.8,27.4,3.7
			c10.1-2,18-6.5,24.3-12.3c16.7-15.3,19.5-44.3,4.1-63.1c-3-3.7-6.8-6.5-10.8-9.2C114.7,29.6,105.1,25.7,94.6,26.5z"/>
		<path class="st0" d="M141.5,56.1c-0.4-0.7-0.1-1.5,0.6-1.9s1.5-0.1,1.9,0.6c0.3,0.5,0.2,1.2-0.2,1.6l1,1.8c0.1,0.1,0,0.3-0.1,0.4
			l-0.4,0.2c-0.1,0.1-0.3,0-0.4-0.1l-1-1.8C142.3,56.9,141.8,56.6,141.5,56.1z"/>
		<path class="st0" d="M141.7,86.7c-0.1-0.8,0.3-1.5,1.1-1.7c0.8-0.1,1.5,0.3,1.7,1.1c0.1,0.6-0.2,1.2-0.6,1.5l0.4,2.1
			c0,0.1-0.1,0.3-0.2,0.3l-0.5,0.1c-0.1,0-0.3-0.1-0.3-0.2l-0.4-2.1C142.3,87.7,141.8,87.2,141.7,86.7z"/>
		<path class="st3" d="M94.6,26.5C59.1,29.2,36,66.4,57.3,98.9c4.5,6.9,10.7,12.6,18.7,16c7.1,3,17.1,5.8,27.4,3.7
			c10.1-2,18-6.5,24.3-12.3c16.7-15.3,19.5-44.3,4.1-63.1c-3-3.7-6.8-6.5-10.8-9.2C114.7,29.6,105.1,25.7,94.6,26.5"/>
		<path class="st0" d="M136.1,46.6c-0.5-0.6-0.5-1.5,0.1-2c0.6-0.5,1.5-0.5,2,0.1c0.4,0.5,0.4,1.1,0.2,1.6l1.4,1.6
			c0.1,0.1,0.1,0.3,0,0.4l-0.4,0.3c-0.1,0.1-0.3,0.1-0.4,0l-1.4-1.6C137.2,47.2,136.5,47.1,136.1,46.6z"/>
		<path class="st2" d="M129.3,114.7c-12.2,0.9-21.3,8.4-34.6,7.7c-7.5-0.4-14.1-2.2-20-4.3c-2.8-1-5.3-2.2-8.6-2.8
			c-2.2-0.4-5.2-0.8-6.8,0.3c-2,1.4-3.5,4.8-5.1,6.8c3.9,0.9,7.6,1.1,11.2,2.1c2.6,0.7,5.3,2.1,7.8,2.9c5.8,1.7,11,2.9,18,3.7
			c1.7,0.2,3.6,0.6,5.5,0.3c11.1-1.3,19.8-4.1,28.9-7.2c3.2-1,8.6-2.6,11.9-2c-0.5-1.1-1.2-2-2-3C134,117.3,133,114.4,129.3,114.7z"
			/>
		<path class="st2" d="M136.9,123.6c-0.9,0-2,0.3-2.6,0.6c0.4,0.7,1.6,1.6,1.8,2.3c0.5,2-5.7,4.9-7.5,5.1c-1.5,0.1-1.5-1.9-2.6-1
			c-0.7,0.6-2.3,2.9-0.4,3.2C132.7,134.7,145.5,123.5,136.9,123.6z"/>
		<g>
			<path class="st0" d="M52,65.8c0.2-0.2,0.4-0.3,0.8-0.2c0.3,0,0.5,0.2,0.6,0.5c0,0.1,0,0.4,0,0.6l-0.2,1.4l-1.6-0.2l0.2-1.4
				C51.8,66.1,51.9,65.9,52,65.8L52,65.8z M50.4,68.9l5.9,0.9l0.2-1.2l-2.3-0.3l0.2-1.3c0.1-0.4,0.2-0.6,0.3-0.7
				c0.1-0.1,0.4-0.1,0.8-0.1l0.5,0.1c0.2,0,0.3,0,0.5,0c0.1,0,0.2,0,0.3,0l0.2-1.4l-0.1,0c-0.1,0.1-0.2,0.2-0.4,0.2
				c-0.1,0-0.3,0-0.6,0l-0.4-0.1c-0.4-0.1-0.7,0-0.9,0c-0.2,0.1-0.4,0.3-0.5,0.5c-0.1-0.3-0.2-0.6-0.5-0.8c-0.2-0.2-0.5-0.3-0.8-0.3
				c-0.2,0-0.4,0-0.6,0c-0.2,0-0.4,0.1-0.5,0.2c-0.2,0.1-0.4,0.3-0.5,0.5c-0.1,0.2-0.2,0.5-0.3,0.9L50.4,68.9z"/>
			<polygon class="st0" points="52.7,58.4 53.7,58.7 52.8,61.7 54,62 54.8,59.3 55.8,59.6 55,62.3 56.5,62.8 57.4,59.6 58.4,59.9 
				57.2,64.2 51.5,62.5 			"/>
			<path class="st0" d="M56.9,55.2c0.1,0.2,0,0.4-0.1,0.7l-0.5,1.1l-1.6-0.7l0.5-1.1c0.1-0.3,0.3-0.4,0.5-0.5
				c0.2-0.1,0.4-0.1,0.7,0.1C56.6,54.8,56.8,55,56.9,55.2L56.9,55.2z M55.3,53.4c-0.4,0.2-0.8,0.6-1,1.1l-1.1,2.4l5.4,2.5l0.5-1.1
				l-1.9-0.9l0.5-1.1c0.3-0.6,0.3-1.1,0.2-1.6c-0.1-0.4-0.5-0.8-1.1-1.1C56.3,53.3,55.8,53.3,55.3,53.4z"/>
			<path class="st0" d="M58.9,53.5l-3.1-2l0.7-1.1l3.1,2c0.3,0.2,0.6,0.3,0.8,0.4c0.4,0.1,0.7-0.1,0.9-0.6c0.3-0.4,0.3-0.8,0.1-1.1
				c-0.1-0.2-0.3-0.4-0.7-0.6l-3.1-2l0.7-1.1l3.1,2c0.5,0.3,0.9,0.7,1.1,1c0.4,0.7,0.3,1.4-0.3,2.3c-0.5,0.9-1.2,1.3-1.9,1.3
				C59.9,54,59.4,53.9,58.9,53.5z"/>
			<path class="st0" d="M62.3,44.5c0.2-0.1,0.4-0.1,0.6,0.1c0.2,0.2,0.3,0.3,0.2,0.5c0,0.2-0.1,0.4-0.3,0.6l-0.9,1.1l-1-0.8l0.8-1
				C61.9,44.8,62.1,44.6,62.3,44.5L62.3,44.5z M64.1,45.9c-0.1,0.1-0.3,0.2-0.5,0.4l-1,1.1l1.2,1l0.9-1.1c0.2-0.2,0.3-0.4,0.3-0.5
				c0.1-0.3,0-0.5-0.3-0.8C64.6,45.9,64.3,45.8,64.1,45.9L64.1,45.9z M59.3,46.2l4.5,3.8l1.7-2.1c0.2-0.2,0.4-0.5,0.5-0.7
				c0.1-0.2,0.2-0.5,0.2-0.7c0-0.2,0-0.4-0.1-0.6c-0.1-0.3-0.3-0.6-0.5-0.8c-0.3-0.2-0.5-0.3-0.8-0.4c-0.3,0-0.6,0-0.8,0.2
				c0.1-0.2,0.1-0.4,0-0.6c0-0.3-0.2-0.5-0.5-0.8c-0.3-0.2-0.6-0.4-0.9-0.4c-0.5,0-1,0.2-1.5,0.8L59.3,46.2z"/>
			<polygon class="st0" points="67.5,45.9 63.5,41.5 64.4,40.7 67.7,44.3 69.9,42.3 70.6,43.1 			"/>
			<rect x="69" y="37.1" transform="matrix(0.7899 -0.6132 0.6132 0.7899 -9.9473 51.1397)" class="st0" width="1.2" height="5.9"/>
			<path class="st0" d="M70.8,39.2c-0.6-0.9-0.8-1.7-0.6-2.5c0.1-0.7,0.5-1.2,1.2-1.6c0.8-0.5,1.6-0.7,2.4-0.4
				c0.4,0.2,0.7,0.4,0.9,0.7l-1,0.7c-0.2-0.2-0.4-0.3-0.6-0.4c-0.3-0.1-0.7,0-1.1,0.2c-0.4,0.2-0.6,0.6-0.6,1c0,0.4,0.1,1,0.5,1.5
				s0.7,0.9,1.2,1c0.4,0.1,0.8,0.1,1.2-0.1c0.4-0.2,0.6-0.5,0.6-0.9c0-0.2,0-0.4-0.1-0.8l1-0.7c0.3,0.6,0.3,1.2,0.2,1.8
				c-0.2,0.6-0.5,1.1-1.1,1.4c-0.7,0.5-1.4,0.6-2.1,0.4C72,40.5,71.3,40,70.8,39.2z"/>
			<path class="st0" d="M79.2,35.2l-1.4,0.6l-0.3-2.4L79.2,35.2L79.2,35.2z M78.1,38.2L78,36.9l2-0.9l0.9,0.9l1.2-0.6l-4.4-4.5
				l-1.3,0.6l0.6,6.3L78.1,38.2z"/>
			<path class="st0" d="M92.9,29.3c0.2,0.3,0.4,0.7,0.5,1.3c0.1,0.4,0,0.8,0,1.1c-0.2,0.6-0.5,0.9-1.1,1L91.1,33l-0.5-3.8l1.1-0.1
				C92.3,28.9,92.7,29,92.9,29.3L92.9,29.3z M89.2,28.3l0.8,5.9l2.5-0.3c0.9-0.1,1.5-0.6,1.8-1.4c0.2-0.6,0.3-1.3,0.2-2.1
				c0-0.3-0.1-0.6-0.2-1c-0.1-0.3-0.3-0.6-0.5-0.9c-0.3-0.3-0.7-0.5-1.1-0.6c-0.3,0-0.6-0.1-0.9,0L89.2,28.3z"/>
			<polygon class="st0" points="100.7,27.7 100.7,28.7 97.5,28.6 97.5,29.9 100.4,30 100.3,31 97.4,30.9 97.4,32.4 100.7,32.6 
				100.6,33.6 96.1,33.5 96.3,27.5 			"/>
			<path class="st0" d="M110.3,33c0.4-0.9,1-1.6,1.8-1.8c0.6-0.2,1.3-0.2,2,0.1c0.9,0.4,1.4,1,1.6,1.8c0.1,0.4,0.1,0.8-0.1,1.2
				l-1.1-0.5c0-0.3,0-0.5,0-0.7c-0.1-0.3-0.4-0.6-0.8-0.8c-0.4-0.2-0.8-0.2-1.2,0.1c-0.4,0.2-0.7,0.6-1,1.2
				c-0.3,0.6-0.4,1.1-0.2,1.5c0.1,0.4,0.4,0.7,0.8,0.9c0.4,0.2,0.8,0.2,1.1,0c0.2-0.1,0.4-0.3,0.6-0.5l1.1,0.5
				c-0.4,0.5-0.8,0.9-1.4,1.1c-0.6,0.2-1.2,0.1-1.8-0.1c-0.8-0.4-1.3-0.9-1.5-1.6C109.8,34.7,109.9,33.9,110.3,33z"/>
			<path class="st0" d="M116.6,37.9c0-0.5,0.1-1,0.5-1.5c0.4-0.6,0.8-0.9,1.2-1c0.4-0.1,0.9-0.1,1.3,0.2c0.4,0.3,0.6,0.6,0.7,1.1
				c0,0.5-0.1,1-0.5,1.5c-0.4,0.6-0.8,0.9-1.2,1c-0.4,0.1-0.9,0.1-1.3-0.2C116.9,38.7,116.7,38.4,116.6,37.9L116.6,37.9z
				 M121.5,36.3c-0.1-0.6-0.5-1.2-1.2-1.7c-0.7-0.5-1.4-0.6-2-0.5c-0.8,0.1-1.5,0.6-2.1,1.5c-0.6,0.9-0.8,1.7-0.6,2.5
				c0.1,0.6,0.5,1.2,1.2,1.7c0.7,0.5,1.4,0.6,2,0.5c0.8-0.1,1.5-0.6,2.1-1.5C121.5,38,121.7,37.1,121.5,36.3z"/>
			<polygon class="st0" points="119.9,41.9 123.7,37.3 124.6,38.1 121.6,41.9 123.9,43.7 123.2,44.5 			"/>
			<path class="st0" d="M125.8,45.1c0.1-0.5,0.4-0.9,0.9-1.4c0.5-0.4,1-0.7,1.4-0.7c0.5,0,0.9,0.1,1.2,0.5c0.3,0.4,0.5,0.8,0.4,1.2
				c-0.1,0.5-0.4,0.9-0.9,1.4c-0.5,0.4-1,0.7-1.4,0.7c-0.5,0-0.9-0.1-1.2-0.5C125.9,46,125.8,45.6,125.8,45.1L125.8,45.1z
				 M130.9,44.8c0-0.6-0.2-1.3-0.8-1.9c-0.6-0.6-1.2-1-1.8-1c-0.8-0.1-1.6,0.2-2.4,1c-0.8,0.7-1.2,1.5-1.2,2.3
				c0,0.6,0.2,1.3,0.8,1.9c0.6,0.6,1.2,1,1.8,1c0.8,0.1,1.6-0.3,2.4-1C130.5,46.4,130.9,45.6,130.9,44.8z"/>
			<path class="st0" d="M130.5,51.5L135,50l0.9,1.5l-5.1,3.1l-0.6-1l3.4-2.1c0.1-0.1,0.2-0.1,0.4-0.2c0.2-0.1,0.3-0.2,0.4-0.2
				l-4.9,1.6l-0.6-1l3.7-3.5c-0.1,0.1-0.2,0.1-0.4,0.3c-0.2,0.1-0.3,0.2-0.4,0.3l-3.4,2.1l-0.6-1l5.1-3.1l0.9,1.5L130.5,51.5z"/>
			<path class="st0" d="M136.9,56.8c0,0.2-0.1,0.4-0.4,0.5c-0.2,0.1-0.4,0.1-0.6,0c-0.2-0.1-0.3-0.3-0.4-0.5l-0.5-1.4l1.2-0.5
				l0.5,1.2C136.9,56.4,136.9,56.6,136.9,56.8L136.9,56.8z M134.8,57.7c0,0.3-0.2,0.5-0.5,0.6c-0.3,0.1-0.6,0.1-0.8-0.1
				c-0.1-0.1-0.2-0.3-0.3-0.5l-0.5-1.4l1.5-0.6l0.5,1.4C134.8,57.4,134.8,57.6,134.8,57.7L134.8,57.7z M136.8,53.4l-5.5,2.2l1,2.5
				c0.1,0.3,0.2,0.5,0.4,0.8c0.1,0.2,0.3,0.4,0.5,0.5c0.2,0.1,0.4,0.2,0.6,0.2c0.3,0.1,0.7,0,1-0.1c0.3-0.1,0.6-0.3,0.7-0.5
				c0.2-0.2,0.2-0.5,0.2-0.8c0.2,0.1,0.3,0.2,0.5,0.3c0.3,0.1,0.6,0.1,0.9-0.1c0.3-0.1,0.6-0.3,0.7-0.6c0.3-0.4,0.3-1,0-1.7
				L136.8,53.4z"/>
			
				<rect x="133.3" y="60.2" transform="matrix(0.9641 -0.2656 0.2656 0.9641 -11.2695 38.3855)" class="st0" width="5.9" height="1.2"/>
			<path class="st0" d="M136.6,66l-0.2-1.5l2.4,0.4L136.6,66L136.6,66z M134.1,64.2l1.3,0.2l0.4,2.2l-1.1,0.6l0.2,1.3l5.5-3.1
				L140,64l-6.2-1.1L134.1,64.2z"/>
		</g>
		<polygon class="st4" points="84,29.1 85.2,31.1 87.4,30.6 85.9,32.4 87.1,34.4 84.9,33.5 83.4,35.2 83.6,32.9 81.5,32 83.7,31.4 
					"/>
		<polygon class="st4" points="53.8,77.9 54.5,80 56.9,80.1 55,81.5 55.7,83.7 53.8,82.4 51.9,83.7 52.6,81.5 50.7,80.1 53,80 		"/>
		<polygon class="st4" points="136.9,77.9 137.6,80 139.9,80.1 138.1,81.5 138.8,83.7 136.9,82.4 135,83.7 135.7,81.5 133.8,80.1 
			136.1,80 		"/>
		<polygon class="st4" points="92.1,111.6 92.8,113.7 95.1,113.8 93.3,115.2 94,117.4 92.1,116.1 90.2,117.4 90.9,115.2 89,113.8 
			91.3,113.7 		"/>
		<polygon class="st4" points="106.5,29 105.3,31 103.1,30.5 104.6,32.3 103.4,34.3 105.6,33.4 107.1,35.1 107,32.8 109.1,31.8 
			106.8,31.3 		"/>
		<path class="st2" d="M132,124.1c-2.7,0-6.1,1.6-8.6,2.3c-3.7,1-3.6,1.2-1.4,3.9c0.4,0.5,0.8,0.8,1.3,1.2c2.2-3.1,5.4-5.1,10.2-5.6
			C133.3,125.1,133,124.1,132,124.1z"/>
		<path class="st2" d="M132.8,127.3c-1.1,0.1-2.8,0.6-3.7,1c-0.8,0.3-2.3,1.9-0.2,1.8c1.5-0.1,2.8-1.2,3.9-1.9
			C133.1,127.9,134.2,127.3,132.8,127.3z"/>
		<g>
			<path class="st0" d="M62.3,98.2c-0.2-0.1-0.4-0.2-0.6-0.4l-0.7-1l1.4-1l0.7,1c0.2,0.2,0.2,0.5,0.2,0.7c0,0.2-0.1,0.4-0.4,0.6
				C62.8,98.2,62.5,98.3,62.3,98.2L62.3,98.2z M64.6,97.8c0-0.5-0.1-0.9-0.4-1.4l-1.5-2.1l-4.9,3.4l0.7,1l1.8-1.2l0.7,1
				c0.4,0.5,0.8,0.9,1.2,1c0.4,0.1,0.9,0,1.5-0.4C64.3,98.7,64.5,98.2,64.6,97.8z"/>
			<path class="st0" d="M63.4,102.7c0.1-0.5,0.3-0.9,0.8-1.4c0.5-0.5,1-0.7,1.4-0.7c0.5,0,0.9,0.1,1.2,0.5c0.3,0.4,0.5,0.8,0.4,1.2
				c-0.1,0.5-0.3,0.9-0.8,1.4c-0.5,0.5-1,0.7-1.4,0.7c-0.5,0-0.9-0.1-1.2-0.5C63.5,103.6,63.4,103.1,63.4,102.7L63.4,102.7z
				 M68.5,102.2c0-0.6-0.2-1.3-0.8-1.9c-0.6-0.6-1.2-0.9-1.8-0.9c-0.8-0.1-1.6,0.3-2.4,1c-0.8,0.7-1.2,1.5-1.2,2.3
				c0,0.6,0.2,1.3,0.8,1.9c0.6,0.6,1.2,0.9,1.8,0.9c0.8,0,1.6-0.3,2.4-1C68.1,103.8,68.5,103,68.5,102.2z"/>
			<polygon class="st0" points="66.4,107.7 70.1,102.9 71,103.7 68.1,107.6 70.4,109.4 69.8,110.2 			"/>
			
				<rect x="69.9" y="108" transform="matrix(0.5221 -0.8529 0.8529 0.5221 -57.8068 114.083)" class="st0" width="5.9" height="1.2"/>
			<path class="st0" d="M74.3,109.6c0.4-0.9,1-1.6,1.8-1.8c0.6-0.2,1.3-0.2,2,0.1c0.9,0.4,1.4,1,1.6,1.8c0.1,0.4,0.1,0.8-0.1,1.2
				l-1.1-0.5c0-0.3,0-0.5,0-0.7c-0.1-0.3-0.3-0.6-0.8-0.8c-0.4-0.2-0.8-0.2-1.2,0.1c-0.4,0.2-0.7,0.6-1,1.2
				c-0.3,0.6-0.4,1.1-0.2,1.5c0.1,0.4,0.4,0.7,0.7,0.9c0.4,0.2,0.8,0.2,1.1,0c0.2-0.1,0.4-0.3,0.6-0.5l1.1,0.5
				c-0.4,0.5-0.8,0.9-1.4,1.1c-0.6,0.2-1.2,0.1-1.8-0.2c-0.8-0.4-1.3-0.9-1.5-1.6C73.8,111.3,73.9,110.5,74.3,109.6z"/>
			
				<rect x="77.7" y="111.6" transform="matrix(0.338 -0.9412 0.9412 0.338 -52.2236 150.2603)" class="st0" width="5.9" height="1.2"/>
			<path class="st0" d="M85.3,114.4l-1.5-0.4l1.4-2.1L85.3,114.4L85.3,114.4z M82.6,116l0.7-1.1l2.1,0.6l0,1.3l1.3,0.4l-0.5-6.3
				l-1.4-0.4l-3.6,5.2L82.6,116z"/>
			<polygon class="st0" points="98.9,118.1 98.1,112.2 99.4,112 102.3,115.8 101.7,111.7 102.9,111.6 103.7,117.4 102.5,117.6 
				99.5,113.8 100.1,117.9 			"/>
			<path class="st0" d="M107.6,114l-1.4,0.4l0.1-2.5L107.6,114L107.6,114z M106.1,116.8l0.1-1.3l2.1-0.6l0.7,1.1l1.3-0.4l-3.7-5.1
				l-1.3,0.4l-0.4,6.3L106.1,116.8z"/>
			<path class="st0" d="M110,112.6c-0.4-0.9-0.5-1.8-0.2-2.5c0.2-0.6,0.7-1.1,1.4-1.4c0.9-0.4,1.7-0.4,2.4,0
				c0.4,0.2,0.7,0.5,0.8,0.8l-1.1,0.5c-0.2-0.2-0.4-0.4-0.5-0.5c-0.3-0.1-0.7-0.1-1.1,0c-0.4,0.2-0.7,0.5-0.8,0.9
				c-0.1,0.4,0,1,0.3,1.6c0.3,0.6,0.6,1,1,1.2c0.4,0.2,0.8,0.2,1.2,0c0.4-0.2,0.6-0.4,0.7-0.8c0.1-0.2,0.1-0.4,0-0.8l1.1-0.5
				c0.2,0.6,0.1,1.2-0.1,1.8c-0.2,0.5-0.7,1-1.3,1.2c-0.8,0.3-1.5,0.4-2.2,0.1C110.9,114.1,110.4,113.5,110,112.6z"/>
			
				<rect x="115.4" y="106.7" transform="matrix(0.8741 -0.4857 0.4857 0.8741 -38.6626 70.1654)" class="st0" width="1.2" height="5.9"/>
			<path class="st0" d="M119.7,109.3c-0.4-0.1-0.9-0.5-1.2-1c-0.4-0.6-0.6-1.1-0.5-1.5c0-0.5,0.3-0.8,0.7-1.1
				c0.4-0.3,0.8-0.4,1.3-0.2c0.4,0.1,0.9,0.5,1.2,1c0.4,0.6,0.6,1.1,0.5,1.5c0,0.5-0.3,0.8-0.7,1.1
				C120.5,109.3,120.1,109.4,119.7,109.3L119.7,109.3z M120,104.2c-0.6-0.1-1.3,0.1-2,0.5c-0.7,0.5-1.1,1-1.2,1.7
				c-0.2,0.8,0,1.6,0.6,2.5c0.6,0.9,1.3,1.4,2.1,1.5c0.6,0.1,1.3-0.1,2-0.5c0.7-0.5,1.1-1,1.2-1.7c0.2-0.8,0-1.6-0.7-2.5
				C121.5,104.8,120.8,104.3,120,104.2z"/>
			<polygon class="st0" points="124.8,107.3 120.8,102.9 121.8,102 126.3,103.5 123.6,100.5 124.4,99.7 128.4,104.1 127.5,104.9 
				122.8,103.4 125.7,106.5 			"/>
			<path class="st0" d="M129.8,99l-0.9,1.2l-1.3-2.1L129.8,99L129.8,99z M130.1,102.1l-0.7-1.1l1.4-1.7l1.2,0.5l0.8-1.1l-6-2.1
				l-0.9,1.1l3.3,5.4L130.1,102.1z"/>
			<polygon class="st0" points="133.5,97.7 128.4,94.7 129,93.6 133.2,96.1 134.7,93.5 135.6,94.1 			"/>
		</g>
		
			<ellipse transform="matrix(0.9732 -0.2298 0.2298 0.9732 -14.1139 23.8421)" class="st5" cx="95.3" cy="72.5" rx="37.4" ry="37.4"/>
		<g>
			<path class="st0" d="M66.6,118.6c0.1,0.4,0,0.9-0.2,1.5c-0.1,0.4-0.3,0.8-0.5,1c-0.4,0.5-0.9,0.6-1.5,0.5l-1.1-0.4l1.2-3.8
				l1.1,0.4C66.2,118,66.5,118.2,66.6,118.6L66.6,118.6z M63.7,116l-1.9,5.8l2.5,0.8c0.9,0.3,1.6,0.1,2.3-0.4c0.5-0.4,0.9-1,1.1-1.8
				c0.1-0.3,0.2-0.6,0.2-1c0-0.4,0-0.7-0.1-1.1c-0.1-0.4-0.4-0.8-0.7-1.1c-0.2-0.2-0.5-0.3-0.9-0.4L63.7,116z"/>
			
				<rect x="65.8" y="120.3" transform="matrix(0.3119 -0.9501 0.9501 0.3119 -67.5305 148.6465)" class="st0" width="6.1" height="1.3"/>
			<path class="st0" d="M71.3,123.4c-0.2-0.4-0.1-1,0.1-1.7c0.2-0.7,0.5-1.1,0.9-1.4c0.4-0.3,0.8-0.3,1.3-0.2c0.5,0.2,0.8,0.5,1,0.9
				c0.2,0.4,0.1,1-0.1,1.6c-0.2,0.7-0.5,1.1-0.9,1.4c-0.4,0.3-0.8,0.3-1.3,0.2C71.8,124.2,71.5,123.9,71.3,123.4L71.3,123.4z
				 M75.7,120.5c-0.3-0.6-0.8-1-1.7-1.3c-0.8-0.3-1.5-0.3-2.1,0.1c-0.8,0.3-1.3,1-1.7,2.1c-0.3,1-0.3,1.9,0.1,2.7
				c0.3,0.6,0.8,1,1.7,1.3c0.8,0.3,1.5,0.3,2.1-0.1c0.8-0.4,1.3-1.1,1.7-2.1C76.1,122.1,76.1,121.2,75.7,120.5z"/>
			<path class="st0" d="M76,124.6l1.2,0.3c0,0.3,0,0.5,0.1,0.7c0.1,0.3,0.5,0.5,0.9,0.6c0.3,0.1,0.5,0.1,0.7,0.1
				c0.4,0,0.6-0.2,0.7-0.6c0-0.2,0-0.4-0.1-0.5c-0.1-0.1-0.4-0.3-0.7-0.5l-0.6-0.3c-0.6-0.3-1-0.6-1.2-0.8c-0.3-0.4-0.4-0.9-0.3-1.4
				c0.1-0.5,0.4-0.9,0.9-1.2c0.5-0.3,1.1-0.3,1.8-0.1c0.6,0.2,1.1,0.5,1.5,0.9c0.4,0.4,0.5,1,0.3,1.6l-1.2-0.3
				c0.1-0.4,0-0.7-0.3-0.9c-0.2-0.1-0.4-0.3-0.7-0.3c-0.3-0.1-0.6-0.1-0.8,0c-0.2,0.1-0.4,0.2-0.4,0.5c-0.1,0.2,0,0.4,0.2,0.5
				c0.1,0.1,0.3,0.2,0.7,0.4l1,0.5c0.4,0.2,0.7,0.4,0.9,0.7c0.3,0.4,0.4,0.8,0.2,1.3c-0.1,0.5-0.5,0.9-1,1.2
				c-0.5,0.3-1.1,0.3-1.9,0.1c-0.8-0.2-1.3-0.5-1.7-1C75.9,125.8,75.8,125.2,76,124.6z"/>
			<polygon class="st0" points="90.7,126 92.2,123.5 93.6,123.7 91.2,127.2 90.9,129.5 89.6,129.3 89.9,127.1 88.2,123 89.7,123.2 
							"/>
			<path class="st0" d="M103.7,125c-0.1,0.2-0.4,0.3-0.7,0.3l-1.2,0.2l-0.2-1.8l1.2-0.2c0.3,0,0.5,0,0.7,0.1
				c0.2,0.1,0.3,0.3,0.3,0.6C103.9,124.6,103.8,124.9,103.7,125L103.7,125z M104.4,122.8c-0.4-0.3-0.9-0.4-1.5-0.3l-2.6,0.3l0.8,6.1
				l1.3-0.2l-0.3-2.2l1.3-0.2c0.7-0.1,1.2-0.3,1.5-0.6c0.3-0.3,0.4-0.9,0.3-1.6C105,123.5,104.8,123,104.4,122.8z"/>
			<path class="st0" d="M109.3,125.4l-1.5,0.2l0.4-2.5L109.3,125.4L109.3,125.4z M107.4,128l0.2-1.3l2.2-0.3l0.6,1.2l1.4-0.2
				l-3.1-5.7l-1.4,0.2l-1.2,6.4L107.4,128z"/>
			<polygon class="st0" points="110.8,121.3 115.7,120.3 115.9,121.4 114.1,121.8 115.1,126.7 113.8,126.9 112.8,122 111,122.4 			
				"/>
			<path class="st0" d="M119.5,120.2c0.3,0,0.5,0.2,0.6,0.6c0.1,0.3,0.1,0.6-0.1,0.8c-0.1,0.1-0.3,0.2-0.6,0.3l-1.4,0.5l-0.5-1.6
				l1.4-0.5C119.2,120.2,119.4,120.1,119.5,120.2L119.5,120.2z M116,120.1l1.9,5.8l1.2-0.4l-0.8-2.3l1.3-0.4
				c0.4-0.1,0.6-0.1,0.8-0.1c0.2,0.1,0.3,0.3,0.4,0.7l0.2,0.5c0.1,0.2,0.1,0.3,0.2,0.5c0,0.1,0.1,0.2,0.2,0.3l1.3-0.4l0-0.1
				c-0.1,0-0.2-0.1-0.3-0.3c-0.1-0.1-0.1-0.3-0.2-0.5L122,123c-0.1-0.4-0.3-0.7-0.5-0.8c-0.2-0.2-0.4-0.3-0.7-0.3
				c0.3-0.2,0.5-0.5,0.5-0.8c0-0.3,0-0.6-0.1-0.9c-0.1-0.2-0.2-0.4-0.3-0.6c-0.1-0.2-0.3-0.3-0.5-0.4c-0.2-0.1-0.4-0.2-0.7-0.2
				c-0.2,0-0.6,0-1,0.2L116,120.1z"/>
			
				<rect x="122.4" y="117.9" transform="matrix(0.9487 -0.3162 0.3162 0.9487 -31.9422 45.1134)" class="st0" width="1.3" height="6.1"/>
			<path class="st0" d="M127.9,120.2l-1.5,0.5l0-2.5L127.9,120.2L127.9,120.2z M126.4,123.1l0-1.3l2.1-0.7l0.8,1.1l1.3-0.4l-4-5.1
				l-1.4,0.5l-0.1,6.5L126.4,123.1z"/>
		</g>
		<path class="st0" d="M122.5,32.3c-0.5-0.6-0.5-1.5,0.1-2c0.6-0.5,1.5-0.5,2,0.1c0.4,0.5,0.4,1.1,0.2,1.6l1.4,1.6
			c0.1,0.1,0.1,0.3,0,0.4l-0.4,0.3c-0.1,0.1-0.3,0.1-0.4,0l-1.4-1.6C123.5,32.9,122.9,32.8,122.5,32.3z"/>
		<path class="st2" d="M59.4,124.2c-0.6,0.2-1,1.3-1.2,2c4.3,1.1,7.5,2.3,9.7,5.4c0.6-0.3,0.7-0.4,1.1-0.9c0.8-1,3.1-2.8,1-3.5
			C68.2,126.6,61.2,123.7,59.4,124.2z"/>
		<path class="st0" d="M67.7,34.6c0.6-0.5,0.6-1.4,0.1-2c-0.5-0.6-1.4-0.6-2-0.1c-0.4,0.4-0.6,1-0.3,1.6l-1.5,1.4
			c-0.1,0.1-0.1,0.3,0,0.4l0.3,0.3c0.1,0.1,0.3,0.1,0.4,0l1.5-1.4C66.6,35,67.2,35,67.7,34.6z"/>
		<path class="st2" d="M53.8,123.8c-0.3,0.1-0.7,0.4-0.9,0.7c-3,3.4,8.6,10.5,14,8.9c0.2-1.4-0.3-1.8-1.1-2.5
			c-0.5-0.4-0.8-0.6-1.3,0c-1.4,1.7-8.8-2.5-8.6-4.1c0.1-0.9,1.3-1.9,1.8-2.8C56.5,123.9,55,123.6,53.8,123.8z"/>
		<path class="st2" d="M58.4,127.4c0,0,0.2,0.9,0.4,1c0.8,0.6,2.7,1.7,3.7,1.9c0.6,0.1,0.8-0.2,1.1-0.3
			C63.3,128.1,60.4,127.6,58.4,127.4z"/>
		<path class="st0" d="M55,48.9c0.5-0.6,0.5-1.5-0.1-2c-0.6-0.5-1.5-0.5-2,0.1c-0.4,0.5-0.4,1.1-0.2,1.6l-1.4,1.6
			c-0.1,0.1-0.1,0.3,0,0.4l0.4,0.3c0.1,0.1,0.3,0.1,0.4,0l1.4-1.6C54,49.5,54.6,49.3,55,48.9z"/>
		<path class="st0" d="M50.6,57.4c0.2-0.7-0.2-1.5-1-1.7c-0.7-0.2-1.5,0.2-1.7,1c-0.2,0.6,0.1,1.2,0.5,1.5l-0.6,2
			c0,0.1,0,0.3,0.2,0.3l0.5,0.1c0.1,0,0.3,0,0.3-0.2l0.6-2C49.9,58.3,50.4,58,50.6,57.4z"/>
		<path class="st0" d="M50.2,88c0.2-0.8-0.3-1.5-1.1-1.7c-0.8-0.1-1.5,0.3-1.7,1.1c-0.1,0.6,0.2,1.2,0.6,1.5L47.7,91
			c0,0.1,0.1,0.3,0.2,0.3l0.5,0.1c0.1,0,0.3-0.1,0.3-0.2l0.4-2.1C49.6,89,50.1,88.6,50.2,88z"/>
		<path class="st0" d="M48.1,69.2c0.2-0.8-0.3-1.5-1-1.7c-0.8-0.2-1.5,0.3-1.7,1c-0.1,0.6,0.1,1.2,0.6,1.5l-0.5,2
			c0,0.1,0.1,0.3,0.2,0.3l0.5,0.1c0.1,0,0.3-0.1,0.3-0.2l0.5-2C47.5,70.2,48,69.8,48.1,69.2z"/>
		<polygon class="st6" points="95.7,37.2 104.5,62.2 131.1,62.7 109.9,78.8 117.7,104.3 95.8,89.1 74,104.4 81.7,78.9 60.4,62.9 
			87,62.3 		"/>
		<g>
			<defs>
				<path id="SVGID_1_" d="M69.9,56.9c0.3-0.2,0.6-0.5,0.9-0.7c0-0.3,0.1-0.6,1-1c0,0,0.2-0.1,0.4-0.5c0.5-0.2,1.9-1.1,1.6-1.4
					c3-2.4,6-4.6,9.8-6.8c1.7-1.3,8.8-3.4,8.9,1c0.2,0,0.4,0.1,0.6,0.1c0.3-0.1,0.8-0.2,1.1-0.3c0.1,0.2,0.2,0.4,0,0.6
					c0.4,0.2,0.8,0.5,0.7,1.2c0.4,0.5,0.8,1,1.1,1.4c0.5-0.2,1-0.9,1.6,0.4c0.4-0.1,1.4-0.5,1.2-0.9c-0.3-0.7-0.6-1.2-0.9-1.9
					c-0.8-1.8,0-2.8,2.3-3.2c1.1-0.2,3.2,0,5,0.9c3.9,2.5,8.7,4.9,11,7.8c0.7,0.7,1.6,1.2,1.8,1.1c0,0.2,0.1,0.5,0.5,0.5
					c0.4,0.3,0.7,0.6,0.7,0.9c0.7,0.5,1.1,0.8,1.3,1.1c0.1,0.4-0.4,0.3-1,0.1c-0.6-0.2-1.2-0.3-2.1-0.6c-0.1,0.1-0.4,0.2-0.6,0.2
					c-0.5-0.2-1-0.4-1.6-0.5c-0.5-0.2-1.7-0.2-1.7-0.9c0-0.2-0.3,0.3-0.6,0.2c-0.4,0.1-0.8-0.1-1.5-0.2c-0.4-0.1-1-0.4-1.4-0.7
					c-1.4-0.1-1.7-0.3-2.1-0.7c-0.6-0.3-1.1-0.7-1.7-1.1c-0.1,0-0.3,0-0.5,0c0,0.3-0.2,0.4-0.5,0c0,0.3,0,0.7,0,1.1
					c-0.3,0.3-0.6,0.4-1.1,0c-0.2,0.1-0.4,0-0.7-0.3c-0.1,0.1-0.4,0-0.7-0.2c-0.4,0.3-0.5,0.1-0.6,0c-0.3,0-0.7-0.1-0.7,0.4
					c0,0.2-0.1,0.4-0.2,0.5c-0.1,0.2-0.3,0.3-0.4,0.3c-0.7,0.6-1.1,0.6-1.2,0.3c0-0.1-0.1-0.1-0.2-0.1c-0.2,0.6-0.6,0.7-0.9,0.5
					c0,0-0.1,0-0.2-0.1c-0.2,0.1-0.3,0.2-0.5,0.1c-0.1,0-0.2,0-0.3,0c0,0.1-0.1,0.3-0.1,0.4c-0.2,0.8-0.5,1.6,0,2.1
					c0.2,0.2,0.1,0.9,0,1.6c0.3,0.3,0.6,0.6,0.9,1c4.6-2,6.1,0.1,9.8,0.2c-0.6-0.7-0.9-1.2-1-1.9c0.4-1.2,1-2.2,2-2.6
					c0.9-0.2,3.1,1.8,4.1-0.7c-0.1,0.5,0,0.9-0.1,1.4c0.5,0.1,1,0,1.5-0.1c-1.7,3.8-5.6,0.4-6.2,1.2c0.4,0.6,1.1,1.1,1.9,1.7
					c-0.5,0.4,0.1,3.6-3.1,3.7l-2-0.2c-1.2,0.8-6.8,1.5-8.3,0.1c0.1-0.4,2.9-1.2,4.7-1.2c1,0,2.6,0.5,3.6,1.1l2,0.2l0,0.2l0.1,2.1
					c2.5-1.8,5-3.5,7.4-5.3c0.2-0.5,0.4-0.9,0.5-1.5c1.3-0.5,2.5-1.2,3.8-1.7c-0.9,1.1-1.8,2.2-2.6,3.3c-0.5,0-1.1,0-1.6,0
					c0.2,1.5,0.5,3.1,0.5,4.6c0.4-0.1,0.7-0.2,1.1-0.3c0.1-0.4,0.3-0.8,0.4-1.3c1.3-0.5,2.7-1,4-1.5c-0.9,1-1.9,2.1-2.8,3.1
					c-0.5,0-1.1,0-1.6,0c0.1,7.4,0.2,14.9-3,21.2c-2.3,4.2-5.9,6.5-11,5.7c-1.6-0.2-3.3-1.2-4.8-2c0.7,2,1.5,4,2.7,5.7
					c-1,0-2.3,0-2.2,0.3c0.1,0.4,0.2,0.7,0.3,1.1c0.1,0.4,0.1,0.6-0.2,0.7c-0.4,0.1-0.9,0.1-1.5,0.1c0,0.5,0,1.1,0.1,1.6
					c-0.4,0.2-3.1,0.4-3.7-0.1c0-0.4,0.1-0.9,0.1-1.5c-0.5,0-1-0.1-1.5-0.1c-0.2-0.1-0.3-0.2-0.3-0.4c0.2-0.6,0.5-1.3,0.4-1.5
					c-0.7-0.1-1.4-0.3-2-0.1c0.9-2,1.8-3.9,2.7-6c-3.4,1.4-8.9,5-14.5-1.2c-3.5-4.3-5.6-14.2-4.5-23.4c-0.5,0-1,0-1.5,0
					c-0.9-1-1.8-2-2.7-3.1c1.3,0.5,2.6,0.9,3.9,1.4c0.1,0.3,0.2,0.6,0.3,0.9c0.3,0.3,0.7,0.6,1.1,0.9c0.2-1.7,0.3-3.2,0.4-4.7
					c-0.5-0.1-1-0.1-1.5-0.2c-0.9-1.1-1.8-2.2-2.7-3.3c1.3,0.6,2.6,1.1,4,1.7l0.3,1.3c2.5,1.8,4.6,3.4,7.8,5.7c-0.1-0.8,0-1.6,0-2.5
					l1.7-0.1l0.1,0c1.6,0.3,3.4,0.8,4.5,0.7c0.4-0.5,0.9-1.4,0.8-1.8c-0.1-0.3-3.8-0.2-5.2,0.9l-0.1,0.1l-1.7,0.1
					c-0.3,0-0.6,0-0.9,0c-0.4-0.1-0.7-0.2-1.3-0.7c-0.8-1.1-0.9-2.2-1-2.9c0.3-0.7,1.3-0.9,1.9-1.7c-0.7-1.1-4.4,2.6-6.1-1.3
					c0.5,0.1,0.9,0.1,1.4,0.1c-0.1-0.7-0.1-1-0.1-1.2c1,0.3,0.7,1.2,2.6,0.7c1.3-0.7,3.4,0.8,3.5,2.6c-0.1,0.3-0.6,1.1-1.1,1.6
					c2.2,0,6.4-1.8,8.8-0.6l0.6-1.3c0-0.1,0-0.6,0-0.8c-0.2,0.1-0.2,0-0.3-0.2c-0.1-1.1-0.2-2.1,0-2.2c0.1,0,0.2-0.1,0.3-0.1
					c0-0.1,0-0.2,0-0.3c-0.1,0-0.2,0.1-0.3,0.1c-0.2,0.4-0.3,0.4-0.5,0.3c-0.1-0.3-0.1-0.8-0.2-1c-0.5,0.7-0.9,0.3-1.5-0.1
					c-0.2-0.1-0.4-0.4-0.6-1.2c-0.4,0-0.7,0-1,0.1c-0.1-0.1-0.2-0.2-0.2-0.2c-0.1,0-0.4,0.5-0.7,0.2c-0.2,0.2-0.6,0.4-0.8,0.5
					c-0.9,0.5-1.1,0-0.9-1.1c-0.5,0.3-0.4,0.1-0.4-0.1c-0.3,0-0.4,0-0.5,0c-0.6,0.6-1.3,0.9-1.7,1c-0.7,0.5-1,0.7-1.1,0.7
					c-0.4,0.1-0.6,0.1-0.9,0c-0.5,0.2-0.9,0.6-1.4,0.8c-0.8,0.2-1.3,0.2-1.8,0.1c-0.9,0.7-1.2,0.6-2.1,0.9c-0.1-0.1-0.8,0.2-1,0.3
					c-0.4,0.1-0.6,0.2-1.1,0c0.1-0.2-0.8,0.3-1.6,0.4c0.1-0.2-1.1,0.7-1.2,0.3C69.3,57.5,69.6,57.2,69.9,56.9z"/>
			</defs>
			<clipPath id="SVGID_2_">
				<use xlink:href="#SVGID_1_"  style="overflow:visible;"/>
			</clipPath>
			<g transform="matrix(1 0 0 1 0 -3.814697e-06)" style="clip-path:url(#SVGID_2_);">
				
					<image style="overflow:visible;" width="655" height="838" xlink:href="94499B79.jpg"  transform="matrix(8.330000e-02 0 0 8.320000e-02 68.2477 43.6553)">
				</image>
			</g>
		</g>
	</g>
</g>
</svg>
